<?xml version="1.0" standalone="no"?>
<!DOCTYPE svg PUBLIC "-//W3C//DTD SVG 20010904//EN"
 "http://www.w3.org/TR/2001/REC-SVG-20010904/DTD/svg10.dtd">
<svg version="1.0" xmlns="http://www.w3.org/2000/svg"
 width="512.000000pt" height="512.000000pt" viewBox="0 0 512.000000 512.000000"
 preserveAspectRatio="xMidYMid meet">
<g transform="translate(0.000000,512.000000) scale(0.100000,-0.100000)"
fill="#000000" stroke="none">
<path d="M1470 4459 c-591 -341 -1081 -625 -1087 -631 -10 -8 -13 -273 -13
-1262 0 -688 4 -1257 8 -1264 5 -7 172 -108 373 -224 1513 -877 1786 -1033
1809 -1033 15 0 315 168 735 411 391 226 872 504 1070 619 198 114 366 214
373 223 9 12 12 281 12 1269 l0 1253 -37 24 c-100 64 -2130 1230 -2148 1233
-13 2 -414 -224 -1095 -618z m3190 -1111 l0 -373 -28 -16 c-15 -9 -152 -88
-306 -177 -153 -89 -283 -162 -287 -162 -5 0 -8 162 -7 367 l3 367 310 183
c171 101 311 183 313 183 1 0 2 -168 2 -372z m-710 -416 l0 -368 -97 -56 c-54
-30 -196 -112 -316 -181 l-217 -126 2 366 3 366 310 183 c171 101 311 184 313
184 1 0 2 -166 2 -368z m-722 -423 l-3 -362 -250 -144 c-137 -79 -278 -160
-312 -180 l-63 -35 0 359 0 358 308 182 c169 100 310 182 315 182 4 1 6 -162
5 -360z m1432 4 l0 -358 -73 -41 c-39 -22 -174 -100 -299 -173 -125 -72 -234
-134 -243 -137 -13 -5 -15 36 -15 353 l0 359 308 177 c169 97 310 176 315 177
4 0 7 -161 7 -357z m-710 -405 l0 -363 -305 -175 c-168 -96 -310 -176 -315
-178 -6 -2 -10 127 -10 355 l0 359 313 181 c171 100 313 182 315 182 1 1 2
-162 2 -361z m710 -407 l0 -359 -67 -40 c-241 -140 -557 -322 -560 -322 -1 0
-3 161 -3 359 l0 358 313 181 c171 99 313 181 315 181 1 1 2 -161 2 -358z
m-1430 -10 l0 -359 -282 -163 c-156 -90 -298 -171 -316 -182 l-32 -19 2 363 3
363 305 177 c168 98 308 178 313 178 4 1 7 -161 7 -358z m720 -400 l0 -359
-307 -177 c-170 -98 -311 -180 -315 -182 -5 -2 -8 158 -8 355 l0 360 313 181
c171 99 313 180 315 181 1 0 2 -162 2 -359z m-720 -418 l0 -358 -309 -177
c-169 -98 -311 -178 -315 -178 -3 0 -6 161 -6 358 l0 357 308 177 c169 97 310
177 315 177 4 1 7 -160 7 -356z"/>
</g>
</svg>
