<?xml version="1.0" encoding="utf-8" standalone="no"?>
<!DOCTYPE svg PUBLIC "-//W3C//DTD SVG 1.1//EN"
  "http://www.w3.org/Graphics/SVG/1.1/DTD/svg11.dtd">
<!-- Created with matplotlib (https://matplotlib.org/) -->
<svg height="327.689302pt" version="1.1" viewBox="0 0 568.8 327.689302" width="568.8pt" xmlns="http://www.w3.org/2000/svg" xmlns:xlink="http://www.w3.org/1999/xlink">
 <metadata>
  <rdf:RDF xmlns:cc="http://creativecommons.org/ns#" xmlns:dc="http://purl.org/dc/elements/1.1/" xmlns:rdf="http://www.w3.org/1999/02/22-rdf-syntax-ns#">
   <cc:Work>
    <dc:type rdf:resource="http://purl.org/dc/dcmitype/StillImage"/>
    <dc:date>2021-07-22T08:14:36.667341</dc:date>
    <dc:format>image/svg+xml</dc:format>
    <dc:creator>
     <cc:Agent>
      <dc:title>Matplotlib v3.3.4, https://matplotlib.org/</dc:title>
     </cc:Agent>
    </dc:creator>
   </cc:Work>
  </rdf:RDF>
 </metadata>
 <defs>
  <style type="text/css">*{stroke-linecap:butt;stroke-linejoin:round;}</style>
 </defs>
 <g id="figure_1">
  <g id="patch_1">
   <path d="M 0 327.689302 
L 568.8 327.689302 
L 568.8 0 
L 0 0 
z
" style="fill:#ffffff;"/>
  </g>
  <g id="axes_1">
   <g id="patch_2">
    <path d="M 7.2 309.627082 
L 561.6 309.627082 
L 561.6 7.2 
L 7.2 7.2 
z
" style="fill:#ffffff;"/>
   </g>
   <g id="matplotlib.axis_1">
    <g id="xtick_1">
     <g id="line2d_1">
      <defs>
       <path d="M 0 0 
L 0 3.5 
" id="m0ac7c5025c" style="stroke:#000000;stroke-width:0.8;"/>
      </defs>
      <g>
       <use style="stroke:#000000;stroke-width:0.8;" x="33.448143" xlink:href="#m0ac7c5025c" y="303.811177"/>
      </g>
     </g>
     <g id="text_1">
      <!-- −20 -->
      <g transform="translate(22.8958 318.409615)scale(0.1 -0.1)">
       <defs>
        <path d="M 10.59375 35.5 
L 73.1875 35.5 
L 73.1875 27.203125 
L 10.59375 27.203125 
z
" id="DejaVuSans-8722"/>
        <path d="M 19.1875 8.296875 
L 53.609375 8.296875 
L 53.609375 0 
L 7.328125 0 
L 7.328125 8.296875 
Q 12.9375 14.109375 22.625 23.890625 
Q 32.328125 33.6875 34.8125 36.53125 
Q 39.546875 41.84375 41.421875 45.53125 
Q 43.3125 49.21875 43.3125 52.78125 
Q 43.3125 58.59375 39.234375 62.25 
Q 35.15625 65.921875 28.609375 65.921875 
Q 23.96875 65.921875 18.8125 64.3125 
Q 13.671875 62.703125 7.8125 59.421875 
L 7.8125 69.390625 
Q 13.765625 71.78125 18.9375 73 
Q 24.125 74.21875 28.421875 74.21875 
Q 39.75 74.21875 46.484375 68.546875 
Q 53.21875 62.890625 53.21875 53.421875 
Q 53.21875 48.921875 51.53125 44.890625 
Q 49.859375 40.875 45.40625 35.40625 
Q 44.1875 33.984375 37.640625 27.21875 
Q 31.109375 20.453125 19.1875 8.296875 
z
" id="DejaVuSans-50"/>
        <path d="M 31.78125 66.40625 
Q 24.171875 66.40625 20.328125 58.90625 
Q 16.5 51.421875 16.5 36.375 
Q 16.5 21.390625 20.328125 13.890625 
Q 24.171875 6.390625 31.78125 6.390625 
Q 39.453125 6.390625 43.28125 13.890625 
Q 47.125 21.390625 47.125 36.375 
Q 47.125 51.421875 43.28125 58.90625 
Q 39.453125 66.40625 31.78125 66.40625 
z
M 31.78125 74.21875 
Q 44.046875 74.21875 50.515625 64.515625 
Q 56.984375 54.828125 56.984375 36.375 
Q 56.984375 17.96875 50.515625 8.265625 
Q 44.046875 -1.421875 31.78125 -1.421875 
Q 19.53125 -1.421875 13.0625 8.265625 
Q 6.59375 17.96875 6.59375 36.375 
Q 6.59375 54.828125 13.0625 64.515625 
Q 19.53125 74.21875 31.78125 74.21875 
z
" id="DejaVuSans-48"/>
       </defs>
       <use xlink:href="#DejaVuSans-8722"/>
       <use x="83.789062" xlink:href="#DejaVuSans-50"/>
       <use x="147.412109" xlink:href="#DejaVuSans-48"/>
      </g>
     </g>
    </g>
    <g id="xtick_2">
     <g id="line2d_2">
      <g>
       <use style="stroke:#000000;stroke-width:0.8;" x="119.69653" xlink:href="#m0ac7c5025c" y="303.811177"/>
      </g>
     </g>
     <g id="text_2">
      <!-- −15 -->
      <g transform="translate(109.144186 318.409615)scale(0.1 -0.1)">
       <defs>
        <path d="M 12.40625 8.296875 
L 28.515625 8.296875 
L 28.515625 63.921875 
L 10.984375 60.40625 
L 10.984375 69.390625 
L 28.421875 72.90625 
L 38.28125 72.90625 
L 38.28125 8.296875 
L 54.390625 8.296875 
L 54.390625 0 
L 12.40625 0 
z
" id="DejaVuSans-49"/>
        <path d="M 10.796875 72.90625 
L 49.515625 72.90625 
L 49.515625 64.59375 
L 19.828125 64.59375 
L 19.828125 46.734375 
Q 21.96875 47.46875 24.109375 47.828125 
Q 26.265625 48.1875 28.421875 48.1875 
Q 40.625 48.1875 47.75 41.5 
Q 54.890625 34.8125 54.890625 23.390625 
Q 54.890625 11.625 47.5625 5.09375 
Q 40.234375 -1.421875 26.90625 -1.421875 
Q 22.3125 -1.421875 17.546875 -0.640625 
Q 12.796875 0.140625 7.71875 1.703125 
L 7.71875 11.625 
Q 12.109375 9.234375 16.796875 8.0625 
Q 21.484375 6.890625 26.703125 6.890625 
Q 35.15625 6.890625 40.078125 11.328125 
Q 45.015625 15.765625 45.015625 23.390625 
Q 45.015625 31 40.078125 35.4375 
Q 35.15625 39.890625 26.703125 39.890625 
Q 22.75 39.890625 18.8125 39.015625 
Q 14.890625 38.140625 10.796875 36.28125 
z
" id="DejaVuSans-53"/>
       </defs>
       <use xlink:href="#DejaVuSans-8722"/>
       <use x="83.789062" xlink:href="#DejaVuSans-49"/>
       <use x="147.412109" xlink:href="#DejaVuSans-53"/>
      </g>
     </g>
    </g>
    <g id="xtick_3">
     <g id="line2d_3">
      <g>
       <use style="stroke:#000000;stroke-width:0.8;" x="205.944916" xlink:href="#m0ac7c5025c" y="303.811177"/>
      </g>
     </g>
     <g id="text_3">
      <!-- −10 -->
      <g transform="translate(195.392572 318.409615)scale(0.1 -0.1)">
       <use xlink:href="#DejaVuSans-8722"/>
       <use x="83.789062" xlink:href="#DejaVuSans-49"/>
       <use x="147.412109" xlink:href="#DejaVuSans-48"/>
      </g>
     </g>
    </g>
    <g id="xtick_4">
     <g id="line2d_4">
      <g>
       <use style="stroke:#000000;stroke-width:0.8;" x="292.193302" xlink:href="#m0ac7c5025c" y="303.811177"/>
      </g>
     </g>
     <g id="text_4">
      <!-- −5 -->
      <g transform="translate(284.822209 318.409615)scale(0.1 -0.1)">
       <use xlink:href="#DejaVuSans-8722"/>
       <use x="83.789062" xlink:href="#DejaVuSans-53"/>
      </g>
     </g>
    </g>
    <g id="xtick_5">
     <g id="line2d_5">
      <g>
       <use style="stroke:#000000;stroke-width:0.8;" x="378.441689" xlink:href="#m0ac7c5025c" y="303.811177"/>
      </g>
     </g>
    </g>
    <g id="xtick_6">
     <g id="line2d_6">
      <g>
       <use style="stroke:#000000;stroke-width:0.8;" x="464.690075" xlink:href="#m0ac7c5025c" y="303.811177"/>
      </g>
     </g>
     <g id="text_5">
      <!-- 5 -->
      <g transform="translate(461.508825 318.409615)scale(0.1 -0.1)">
       <use xlink:href="#DejaVuSans-53"/>
      </g>
     </g>
    </g>
    <g id="xtick_7">
     <g id="line2d_7">
      <g>
       <use style="stroke:#000000;stroke-width:0.8;" x="550.938462" xlink:href="#m0ac7c5025c" y="303.811177"/>
      </g>
     </g>
     <g id="text_6">
      <!-- 10 -->
      <g transform="translate(544.575962 318.409615)scale(0.1 -0.1)">
       <use xlink:href="#DejaVuSans-49"/>
       <use x="63.623047" xlink:href="#DejaVuSans-48"/>
      </g>
     </g>
    </g>
    <g id="xtick_8">
     <g id="line2d_8">
      <defs>
       <path d="M 0 0 
L 0 2 
" id="m8d00ef1801" style="stroke:#000000;stroke-width:0.6;"/>
      </defs>
      <g>
       <use style="stroke:#000000;stroke-width:0.6;" x="16.198466" xlink:href="#m8d00ef1801" y="303.811177"/>
      </g>
     </g>
    </g>
    <g id="xtick_9">
     <g id="line2d_9">
      <g>
       <use style="stroke:#000000;stroke-width:0.6;" x="50.697821" xlink:href="#m8d00ef1801" y="303.811177"/>
      </g>
     </g>
    </g>
    <g id="xtick_10">
     <g id="line2d_10">
      <g>
       <use style="stroke:#000000;stroke-width:0.6;" x="67.947498" xlink:href="#m8d00ef1801" y="303.811177"/>
      </g>
     </g>
    </g>
    <g id="xtick_11">
     <g id="line2d_11">
      <g>
       <use style="stroke:#000000;stroke-width:0.6;" x="85.197175" xlink:href="#m8d00ef1801" y="303.811177"/>
      </g>
     </g>
    </g>
    <g id="xtick_12">
     <g id="line2d_12">
      <g>
       <use style="stroke:#000000;stroke-width:0.6;" x="102.446853" xlink:href="#m8d00ef1801" y="303.811177"/>
      </g>
     </g>
    </g>
    <g id="xtick_13">
     <g id="line2d_13">
      <g>
       <use style="stroke:#000000;stroke-width:0.6;" x="136.946207" xlink:href="#m8d00ef1801" y="303.811177"/>
      </g>
     </g>
    </g>
    <g id="xtick_14">
     <g id="line2d_14">
      <g>
       <use style="stroke:#000000;stroke-width:0.6;" x="154.195884" xlink:href="#m8d00ef1801" y="303.811177"/>
      </g>
     </g>
    </g>
    <g id="xtick_15">
     <g id="line2d_15">
      <g>
       <use style="stroke:#000000;stroke-width:0.6;" x="171.445562" xlink:href="#m8d00ef1801" y="303.811177"/>
      </g>
     </g>
    </g>
    <g id="xtick_16">
     <g id="line2d_16">
      <g>
       <use style="stroke:#000000;stroke-width:0.6;" x="188.695239" xlink:href="#m8d00ef1801" y="303.811177"/>
      </g>
     </g>
    </g>
    <g id="xtick_17">
     <g id="line2d_17">
      <g>
       <use style="stroke:#000000;stroke-width:0.6;" x="223.194593" xlink:href="#m8d00ef1801" y="303.811177"/>
      </g>
     </g>
    </g>
    <g id="xtick_18">
     <g id="line2d_18">
      <g>
       <use style="stroke:#000000;stroke-width:0.6;" x="240.444271" xlink:href="#m8d00ef1801" y="303.811177"/>
      </g>
     </g>
    </g>
    <g id="xtick_19">
     <g id="line2d_19">
      <g>
       <use style="stroke:#000000;stroke-width:0.6;" x="257.693948" xlink:href="#m8d00ef1801" y="303.811177"/>
      </g>
     </g>
    </g>
    <g id="xtick_20">
     <g id="line2d_20">
      <g>
       <use style="stroke:#000000;stroke-width:0.6;" x="274.943625" xlink:href="#m8d00ef1801" y="303.811177"/>
      </g>
     </g>
    </g>
    <g id="xtick_21">
     <g id="line2d_21">
      <g>
       <use style="stroke:#000000;stroke-width:0.6;" x="309.44298" xlink:href="#m8d00ef1801" y="303.811177"/>
      </g>
     </g>
    </g>
    <g id="xtick_22">
     <g id="line2d_22">
      <g>
       <use style="stroke:#000000;stroke-width:0.6;" x="326.692657" xlink:href="#m8d00ef1801" y="303.811177"/>
      </g>
     </g>
    </g>
    <g id="xtick_23">
     <g id="line2d_23">
      <g>
       <use style="stroke:#000000;stroke-width:0.6;" x="343.942334" xlink:href="#m8d00ef1801" y="303.811177"/>
      </g>
     </g>
    </g>
    <g id="xtick_24">
     <g id="line2d_24">
      <g>
       <use style="stroke:#000000;stroke-width:0.6;" x="361.192012" xlink:href="#m8d00ef1801" y="303.811177"/>
      </g>
     </g>
    </g>
    <g id="xtick_25">
     <g id="line2d_25">
      <g>
       <use style="stroke:#000000;stroke-width:0.6;" x="395.691366" xlink:href="#m8d00ef1801" y="303.811177"/>
      </g>
     </g>
    </g>
    <g id="xtick_26">
     <g id="line2d_26">
      <g>
       <use style="stroke:#000000;stroke-width:0.6;" x="412.941043" xlink:href="#m8d00ef1801" y="303.811177"/>
      </g>
     </g>
    </g>
    <g id="xtick_27">
     <g id="line2d_27">
      <g>
       <use style="stroke:#000000;stroke-width:0.6;" x="430.190721" xlink:href="#m8d00ef1801" y="303.811177"/>
      </g>
     </g>
    </g>
    <g id="xtick_28">
     <g id="line2d_28">
      <g>
       <use style="stroke:#000000;stroke-width:0.6;" x="447.440398" xlink:href="#m8d00ef1801" y="303.811177"/>
      </g>
     </g>
    </g>
    <g id="xtick_29">
     <g id="line2d_29">
      <g>
       <use style="stroke:#000000;stroke-width:0.6;" x="481.939752" xlink:href="#m8d00ef1801" y="303.811177"/>
      </g>
     </g>
    </g>
    <g id="xtick_30">
     <g id="line2d_30">
      <g>
       <use style="stroke:#000000;stroke-width:0.6;" x="499.18943" xlink:href="#m8d00ef1801" y="303.811177"/>
      </g>
     </g>
    </g>
    <g id="xtick_31">
     <g id="line2d_31">
      <g>
       <use style="stroke:#000000;stroke-width:0.6;" x="516.439107" xlink:href="#m8d00ef1801" y="303.811177"/>
      </g>
     </g>
    </g>
    <g id="xtick_32">
     <g id="line2d_32">
      <g>
       <use style="stroke:#000000;stroke-width:0.6;" x="533.688784" xlink:href="#m8d00ef1801" y="303.811177"/>
      </g>
     </g>
    </g>
   </g>
   <g id="matplotlib.axis_2">
    <g id="ytick_1">
     <g id="line2d_33">
      <defs>
       <path d="M 0 0 
L -3.5 0 
" id="ma9b37c6cf9" style="stroke:#000000;stroke-width:0.8;"/>
      </defs>
      <g>
       <use style="stroke:#000000;stroke-width:0.8;" x="378.441689" xlink:href="#ma9b37c6cf9" y="303.811177"/>
      </g>
     </g>
    </g>
    <g id="ytick_2">
     <g id="line2d_34">
      <g>
       <use style="stroke:#000000;stroke-width:0.8;" x="378.441689" xlink:href="#ma9b37c6cf9" y="260.686984"/>
      </g>
     </g>
     <g id="text_7">
      <!-- 20 -->
      <g transform="translate(358.716689 264.486203)scale(0.1 -0.1)">
       <use xlink:href="#DejaVuSans-50"/>
       <use x="63.623047" xlink:href="#DejaVuSans-48"/>
      </g>
     </g>
    </g>
    <g id="ytick_3">
     <g id="line2d_35">
      <g>
       <use style="stroke:#000000;stroke-width:0.8;" x="378.441689" xlink:href="#ma9b37c6cf9" y="217.562791"/>
      </g>
     </g>
     <g id="text_8">
      <!-- 40 -->
      <g transform="translate(358.716689 221.362009)scale(0.1 -0.1)">
       <defs>
        <path d="M 37.796875 64.3125 
L 12.890625 25.390625 
L 37.796875 25.390625 
z
M 35.203125 72.90625 
L 47.609375 72.90625 
L 47.609375 25.390625 
L 58.015625 25.390625 
L 58.015625 17.1875 
L 47.609375 17.1875 
L 47.609375 0 
L 37.796875 0 
L 37.796875 17.1875 
L 4.890625 17.1875 
L 4.890625 26.703125 
z
" id="DejaVuSans-52"/>
       </defs>
       <use xlink:href="#DejaVuSans-52"/>
       <use x="63.623047" xlink:href="#DejaVuSans-48"/>
      </g>
     </g>
    </g>
    <g id="ytick_4">
     <g id="line2d_36">
      <g>
       <use style="stroke:#000000;stroke-width:0.8;" x="378.441689" xlink:href="#ma9b37c6cf9" y="174.438598"/>
      </g>
     </g>
     <g id="text_9">
      <!-- 60 -->
      <g transform="translate(358.716689 178.237816)scale(0.1 -0.1)">
       <defs>
        <path d="M 33.015625 40.375 
Q 26.375 40.375 22.484375 35.828125 
Q 18.609375 31.296875 18.609375 23.390625 
Q 18.609375 15.53125 22.484375 10.953125 
Q 26.375 6.390625 33.015625 6.390625 
Q 39.65625 6.390625 43.53125 10.953125 
Q 47.40625 15.53125 47.40625 23.390625 
Q 47.40625 31.296875 43.53125 35.828125 
Q 39.65625 40.375 33.015625 40.375 
z
M 52.59375 71.296875 
L 52.59375 62.3125 
Q 48.875 64.0625 45.09375 64.984375 
Q 41.3125 65.921875 37.59375 65.921875 
Q 27.828125 65.921875 22.671875 59.328125 
Q 17.53125 52.734375 16.796875 39.40625 
Q 19.671875 43.65625 24.015625 45.921875 
Q 28.375 48.1875 33.59375 48.1875 
Q 44.578125 48.1875 50.953125 41.515625 
Q 57.328125 34.859375 57.328125 23.390625 
Q 57.328125 12.15625 50.6875 5.359375 
Q 44.046875 -1.421875 33.015625 -1.421875 
Q 20.359375 -1.421875 13.671875 8.265625 
Q 6.984375 17.96875 6.984375 36.375 
Q 6.984375 53.65625 15.1875 63.9375 
Q 23.390625 74.21875 37.203125 74.21875 
Q 40.921875 74.21875 44.703125 73.484375 
Q 48.484375 72.75 52.59375 71.296875 
z
" id="DejaVuSans-54"/>
       </defs>
       <use xlink:href="#DejaVuSans-54"/>
       <use x="63.623047" xlink:href="#DejaVuSans-48"/>
      </g>
     </g>
    </g>
    <g id="ytick_5">
     <g id="line2d_37">
      <g>
       <use style="stroke:#000000;stroke-width:0.8;" x="378.441689" xlink:href="#ma9b37c6cf9" y="131.314404"/>
      </g>
     </g>
     <g id="text_10">
      <!-- 80 -->
      <g transform="translate(358.716689 135.113623)scale(0.1 -0.1)">
       <defs>
        <path d="M 31.78125 34.625 
Q 24.75 34.625 20.71875 30.859375 
Q 16.703125 27.09375 16.703125 20.515625 
Q 16.703125 13.921875 20.71875 10.15625 
Q 24.75 6.390625 31.78125 6.390625 
Q 38.8125 6.390625 42.859375 10.171875 
Q 46.921875 13.96875 46.921875 20.515625 
Q 46.921875 27.09375 42.890625 30.859375 
Q 38.875 34.625 31.78125 34.625 
z
M 21.921875 38.8125 
Q 15.578125 40.375 12.03125 44.71875 
Q 8.5 49.078125 8.5 55.328125 
Q 8.5 64.0625 14.71875 69.140625 
Q 20.953125 74.21875 31.78125 74.21875 
Q 42.671875 74.21875 48.875 69.140625 
Q 55.078125 64.0625 55.078125 55.328125 
Q 55.078125 49.078125 51.53125 44.71875 
Q 48 40.375 41.703125 38.8125 
Q 48.828125 37.15625 52.796875 32.3125 
Q 56.78125 27.484375 56.78125 20.515625 
Q 56.78125 9.90625 50.3125 4.234375 
Q 43.84375 -1.421875 31.78125 -1.421875 
Q 19.734375 -1.421875 13.25 4.234375 
Q 6.78125 9.90625 6.78125 20.515625 
Q 6.78125 27.484375 10.78125 32.3125 
Q 14.796875 37.15625 21.921875 38.8125 
z
M 18.3125 54.390625 
Q 18.3125 48.734375 21.84375 45.5625 
Q 25.390625 42.390625 31.78125 42.390625 
Q 38.140625 42.390625 41.71875 45.5625 
Q 45.3125 48.734375 45.3125 54.390625 
Q 45.3125 60.0625 41.71875 63.234375 
Q 38.140625 66.40625 31.78125 66.40625 
Q 25.390625 66.40625 21.84375 63.234375 
Q 18.3125 60.0625 18.3125 54.390625 
z
" id="DejaVuSans-56"/>
       </defs>
       <use xlink:href="#DejaVuSans-56"/>
       <use x="63.623047" xlink:href="#DejaVuSans-48"/>
      </g>
     </g>
    </g>
    <g id="ytick_6">
     <g id="line2d_38">
      <g>
       <use style="stroke:#000000;stroke-width:0.8;" x="378.441689" xlink:href="#ma9b37c6cf9" y="88.190211"/>
      </g>
     </g>
     <g id="text_11">
      <!-- 100 -->
      <g transform="translate(352.354189 91.98943)scale(0.1 -0.1)">
       <use xlink:href="#DejaVuSans-49"/>
       <use x="63.623047" xlink:href="#DejaVuSans-48"/>
       <use x="127.246094" xlink:href="#DejaVuSans-48"/>
      </g>
     </g>
    </g>
    <g id="ytick_7">
     <g id="line2d_39">
      <g>
       <use style="stroke:#000000;stroke-width:0.8;" x="378.441689" xlink:href="#ma9b37c6cf9" y="45.066018"/>
      </g>
     </g>
     <g id="text_12">
      <!-- 120 -->
      <g transform="translate(352.354189 48.865237)scale(0.1 -0.1)">
       <use xlink:href="#DejaVuSans-49"/>
       <use x="63.623047" xlink:href="#DejaVuSans-50"/>
       <use x="127.246094" xlink:href="#DejaVuSans-48"/>
      </g>
     </g>
    </g>
    <g id="ytick_8">
     <g id="line2d_40">
      <defs>
       <path d="M 0 0 
L -2 0 
" id="m0af810d21c" style="stroke:#000000;stroke-width:0.6;"/>
      </defs>
      <g>
       <use style="stroke:#000000;stroke-width:0.6;" x="378.441689" xlink:href="#m0af810d21c" y="293.030129"/>
      </g>
     </g>
    </g>
    <g id="ytick_9">
     <g id="line2d_41">
      <g>
       <use style="stroke:#000000;stroke-width:0.6;" x="378.441689" xlink:href="#m0af810d21c" y="282.24908"/>
      </g>
     </g>
    </g>
    <g id="ytick_10">
     <g id="line2d_42">
      <g>
       <use style="stroke:#000000;stroke-width:0.6;" x="378.441689" xlink:href="#m0af810d21c" y="271.468032"/>
      </g>
     </g>
    </g>
    <g id="ytick_11">
     <g id="line2d_43">
      <g>
       <use style="stroke:#000000;stroke-width:0.6;" x="378.441689" xlink:href="#m0af810d21c" y="249.905936"/>
      </g>
     </g>
    </g>
    <g id="ytick_12">
     <g id="line2d_44">
      <g>
       <use style="stroke:#000000;stroke-width:0.6;" x="378.441689" xlink:href="#m0af810d21c" y="239.124887"/>
      </g>
     </g>
    </g>
    <g id="ytick_13">
     <g id="line2d_45">
      <g>
       <use style="stroke:#000000;stroke-width:0.6;" x="378.441689" xlink:href="#m0af810d21c" y="228.343839"/>
      </g>
     </g>
    </g>
    <g id="ytick_14">
     <g id="line2d_46">
      <g>
       <use style="stroke:#000000;stroke-width:0.6;" x="378.441689" xlink:href="#m0af810d21c" y="206.781742"/>
      </g>
     </g>
    </g>
    <g id="ytick_15">
     <g id="line2d_47">
      <g>
       <use style="stroke:#000000;stroke-width:0.6;" x="378.441689" xlink:href="#m0af810d21c" y="196.000694"/>
      </g>
     </g>
    </g>
    <g id="ytick_16">
     <g id="line2d_48">
      <g>
       <use style="stroke:#000000;stroke-width:0.6;" x="378.441689" xlink:href="#m0af810d21c" y="185.219646"/>
      </g>
     </g>
    </g>
    <g id="ytick_17">
     <g id="line2d_49">
      <g>
       <use style="stroke:#000000;stroke-width:0.6;" x="378.441689" xlink:href="#m0af810d21c" y="163.657549"/>
      </g>
     </g>
    </g>
    <g id="ytick_18">
     <g id="line2d_50">
      <g>
       <use style="stroke:#000000;stroke-width:0.6;" x="378.441689" xlink:href="#m0af810d21c" y="152.876501"/>
      </g>
     </g>
    </g>
    <g id="ytick_19">
     <g id="line2d_51">
      <g>
       <use style="stroke:#000000;stroke-width:0.6;" x="378.441689" xlink:href="#m0af810d21c" y="142.095453"/>
      </g>
     </g>
    </g>
    <g id="ytick_20">
     <g id="line2d_52">
      <g>
       <use style="stroke:#000000;stroke-width:0.6;" x="378.441689" xlink:href="#m0af810d21c" y="120.533356"/>
      </g>
     </g>
    </g>
    <g id="ytick_21">
     <g id="line2d_53">
      <g>
       <use style="stroke:#000000;stroke-width:0.6;" x="378.441689" xlink:href="#m0af810d21c" y="109.752308"/>
      </g>
     </g>
    </g>
    <g id="ytick_22">
     <g id="line2d_54">
      <g>
       <use style="stroke:#000000;stroke-width:0.6;" x="378.441689" xlink:href="#m0af810d21c" y="98.971259"/>
      </g>
     </g>
    </g>
    <g id="ytick_23">
     <g id="line2d_55">
      <g>
       <use style="stroke:#000000;stroke-width:0.6;" x="378.441689" xlink:href="#m0af810d21c" y="77.409163"/>
      </g>
     </g>
    </g>
    <g id="ytick_24">
     <g id="line2d_56">
      <g>
       <use style="stroke:#000000;stroke-width:0.6;" x="378.441689" xlink:href="#m0af810d21c" y="66.628115"/>
      </g>
     </g>
    </g>
    <g id="ytick_25">
     <g id="line2d_57">
      <g>
       <use style="stroke:#000000;stroke-width:0.6;" x="378.441689" xlink:href="#m0af810d21c" y="55.847066"/>
      </g>
     </g>
    </g>
    <g id="ytick_26">
     <g id="line2d_58">
      <g>
       <use style="stroke:#000000;stroke-width:0.6;" x="378.441689" xlink:href="#m0af810d21c" y="34.28497"/>
      </g>
     </g>
    </g>
    <g id="ytick_27">
     <g id="line2d_59">
      <g>
       <use style="stroke:#000000;stroke-width:0.6;" x="378.441689" xlink:href="#m0af810d21c" y="23.503921"/>
      </g>
     </g>
    </g>
    <g id="ytick_28">
     <g id="line2d_60">
      <g>
       <use style="stroke:#000000;stroke-width:0.6;" x="378.441689" xlink:href="#m0af810d21c" y="12.722873"/>
      </g>
     </g>
    </g>
   </g>
   <g id="line2d_61">
    <path clip-path="url(#p7ed663aaeb)" d="M 550.938462 98.971259 
L 541.142035 91.626932 
L 532.747935 85.675432 
L 524.342571 80.031763 
L 515.90461 74.684077 
L 507.45371 69.647408 
L 498.10091 64.445637 
L 492.029965 61.27857 
L 483.303757 57.015108 
L 478.644143 54.87801 
L 470.745677 51.477281 
L 464.343777 48.925664 
L 457.691917 46.468627 
L 452.298562 44.621748 
L 444.480124 42.175462 
L 437.300232 40.169818 
L 428.925446 38.121743 
L 423.786497 37.020322 
L 418.207697 35.958359 
L 410.262791 34.686298 
L 401.739101 33.635525 
L 395.180911 33.048271 
L 385.556032 32.534781 
L 381.818122 32.447076 
L 373.306016 32.480569 
L 365.20797 32.813273 
L 356.115612 33.536409 
L 348.07379 34.484171 
L 341.781282 35.427507 
L 333.599301 36.918978 
L 325.042433 38.799137 
L 317.202412 40.809303 
L 311.393806 42.475933 
L 305.589319 44.292144 
L 299.236022 46.452834 
L 292.15957 49.072015 
L 283.730509 52.484147 
L 275.764881 56.000761 
L 268.2908 59.558466 
L 261.213477 63.157647 
L 251.235384 68.612639 
L 242.668316 73.65157 
L 234.612991 78.688982 
L 225.507094 84.732877 
L 217.674018 90.228717 
L 210.834557 95.251862 
L 202.853314 101.378132 
L 194.220507 108.325315 
L 186.5283 114.796417 
L 178.953638 121.427275 
L 169.621406 129.949595 
L 161.203732 137.970901 
L 151.904302 147.200939 
L 145.738184 153.534332 
L 138.502414 161.183282 
L 129.619841 170.893287 
L 121.307369 180.299767 
L 113.773301 189.092419 
L 103.989678 200.889362 
L 93.639602 213.835397 
L 85.157919 224.801653 
L 77.230691 235.341965 
L 67.184982 249.102896 
L 57.042795 263.453922 
L 49.435402 274.520259 
L 39.192285 289.829683 
L 30.100696 303.811177 
L 30.100696 303.811177 
" style="fill:none;stroke:#00ffff;stroke-linecap:square;"/>
   </g>
   <g id="line2d_62">
    <path clip-path="url(#p7ed663aaeb)" d="M 550.938462 96.81505 
L 543.549924 91.236114 
L 536.296124 85.996468 
L 526.661511 79.401007 
L 520.283437 75.263262 
L 510.76783 69.428312 
L 504.92956 66.048785 
L 496.461006 61.417677 
L 489.134982 57.670169 
L 482.632658 54.545117 
L 474.574145 50.93459 
L 467.42576 47.974962 
L 459.296375 44.886953 
L 452.133791 42.411163 
L 444.996751 40.172461 
L 437.222273 37.993097 
L 430.509822 36.328934 
L 424.128688 34.933782 
L 416.17505 33.449823 
L 408.279771 32.256619 
L 400.786916 31.382113 
L 394.711264 30.857389 
L 385.879648 30.389104 
L 377.827618 30.266212 
L 370.261255 30.41504 
L 362.498444 30.833878 
L 354.429179 31.554981 
L 346.967655 32.480956 
L 338.856294 33.770094 
L 334.086016 34.66567 
L 325.110193 36.626752 
L 316.960932 38.719373 
L 309.037893 41.038712 
L 302.804693 43.060731 
L 294.057556 46.191329 
L 286.176146 49.305201 
L 279.956081 51.958866 
L 271.774508 55.712901 
L 264.394039 59.356239 
L 259.772211 61.761854 
L 250.650581 66.789954 
L 242.754291 71.443161 
L 235.783838 75.782553 
L 228.361155 80.642422 
L 220.470821 86.078712 
L 211.726589 92.428646 
L 204.622888 97.839042 
L 195.03853 105.496511 
L 186.979067 112.253697 
L 178.711997 119.486822 
L 170.081198 127.364372 
L 160.48756 136.51177 
L 151.37029 145.586502 
L 142.61572 154.650161 
L 134.529536 163.326407 
L 124.488889 174.506806 
L 113.276352 187.525101 
L 103.380951 199.481295 
L 93.515718 211.837045 
L 83.650447 224.628184 
L 73.041449 238.869439 
L 66.639111 247.707368 
L 55.564758 263.427524 
L 47.841156 274.71598 
L 38.416673 288.851822 
L 28.719637 303.811177 
L 28.719637 303.811177 
" style="fill:none;stroke:#00e0ff;stroke-linecap:square;"/>
   </g>
   <g id="line2d_63">
    <path clip-path="url(#p7ed663aaeb)" d="M 550.938462 94.65884 
L 541.467969 87.551961 
L 532.22426 81.002167 
L 523.849587 75.398148 
L 515.867784 70.349016 
L 508.832877 66.135148 
L 502.027137 62.269225 
L 493.360578 57.646192 
L 484.38796 53.213879 
L 476.893169 49.787624 
L 468.684873 46.323475 
L 461.368818 43.489901 
L 457.320269 42.024768 
L 447.68178 38.831739 
L 440.178242 36.633657 
L 436.06284 35.535039 
L 427.631121 33.520784 
L 419.602086 31.898321 
L 411.022735 30.483342 
L 402.470742 29.400549 
L 398.368416 28.997247 
L 390.823075 28.452024 
L 385.74136 28.228336 
L 380.634179 28.119911 
L 372.572382 28.186207 
L 364.303042 28.556254 
L 354.941333 29.344347 
L 348.564183 30.105675 
L 341.585394 31.147296 
L 333.738474 32.578686 
L 325.246702 34.438019 
L 316.637955 36.652219 
L 308.791735 38.959058 
L 301.141616 41.473386 
L 293.38918 44.288406 
L 288.464317 46.216332 
L 279.274372 50.104017 
L 272.905494 53.019914 
L 264.217795 57.29001 
L 258.538734 60.26381 
L 249.565583 65.256595 
L 242.704545 69.31715 
L 234.398915 74.514395 
L 227.84489 78.833395 
L 220.10724 84.179715 
L 210.721687 91.024093 
L 203.672376 96.423894 
L 196.616374 102.05142 
L 186.721037 110.318625 
L 179.899094 116.273186 
L 172.061728 123.371025 
L 165.366326 129.652279 
L 156.31215 138.465339 
L 147.093622 147.815121 
L 140.680386 154.543886 
L 130.291107 165.834744 
L 121.724591 175.507847 
L 112.141933 186.717334 
L 103.028446 197.759083 
L 93.137322 210.163427 
L 82.727328 223.691149 
L 72.190035 237.87797 
L 64.774903 248.159019 
L 53.755912 263.891111 
L 43.199079 279.472798 
L 33.319555 294.506358 
L 27.34401 303.811177 
L 27.34401 303.811177 
" style="fill:none;stroke:#00c2ff;stroke-linecap:square;"/>
   </g>
   <g id="line2d_64">
    <path clip-path="url(#p7ed663aaeb)" d="M 550.938462 92.50263 
L 542.23209 85.954286 
L 535.671348 81.243763 
L 528.360292 76.221352 
L 519.800496 70.644948 
L 510.353375 64.870955 
L 504.04688 61.238688 
L 495.503736 56.601946 
L 487.683841 52.64393 
L 480.989077 49.472729 
L 472.319691 45.664088 
L 465.919818 43.06819 
L 459.195726 40.538154 
L 451.636402 37.93534 
L 443.058527 35.291413 
L 438.285391 33.962736 
L 429.044776 31.680093 
L 420.656242 29.938685 
L 412.540054 28.553415 
L 406.149993 27.670083 
L 400.686851 27.059714 
L 396.359241 26.670978 
L 387.461472 26.13491 
L 382.48952 25.989596 
L 373.939487 25.998285 
L 367.323414 26.229427 
L 361.333092 26.607605 
L 353.611879 27.331843 
L 346.480041 28.237719 
L 336.489936 29.889214 
L 330.147878 31.169303 
L 322.442382 32.966684 
L 313.770932 35.307005 
L 305.81006 37.751689 
L 296.763713 40.873813 
L 292.051947 42.64495 
L 285.400906 45.314082 
L 277.072789 48.93525 
L 269.312493 52.588761 
L 261.856759 56.352619 
L 253.883721 60.652757 
L 244.97121 65.796173 
L 237.975003 70.082622 
L 228.535077 76.213311 
L 221.595482 80.974405 
L 212.98617 87.180452 
L 203.923986 94.071125 
L 197.964947 98.802439 
L 189.040638 106.185167 
L 182.859962 111.507001 
L 174.7147 118.781413 
L 165.10415 127.746108 
L 156.454954 136.167282 
L 146.465112 146.310211 
L 136.984268 156.349212 
L 126.503524 167.914898 
L 116.614116 179.278591 
L 106.160593 191.766114 
L 97.098856 202.986567 
L 90.044306 211.975956 
L 79.728952 225.521228 
L 68.121932 241.331714 
L 60.55299 251.966359 
L 52.207984 263.988424 
L 41.797993 279.422037 
L 32.622562 293.427243 
L 25.973752 303.811177 
L 25.973752 303.811177 
" style="fill:none;stroke:#00a3ff;stroke-linecap:square;"/>
   </g>
   <g id="line2d_65">
    <path clip-path="url(#p7ed663aaeb)" d="M 550.938462 90.346421 
L 541.553788 83.30214 
L 532.014951 76.545863 
L 522.829097 70.424298 
L 513.270846 64.45527 
L 505.271766 59.774038 
L 497.969749 55.750633 
L 490.710193 51.987053 
L 482.528787 48.028102 
L 475.154916 44.716456 
L 467.300814 41.456634 
L 457.838816 37.895912 
L 450.25896 35.332384 
L 446.160004 34.053172 
L 436.193664 31.256377 
L 429.17384 29.553135 
L 425.044852 28.654262 
L 416.224839 26.989603 
L 408.807093 25.858994 
L 400.859069 24.920707 
L 393.323414 24.292065 
L 387.95537 23.999173 
L 379.639503 23.799949 
L 374.375731 23.833715 
L 365.32095 24.181775 
L 358.713685 24.667203 
L 351.405884 25.431533 
L 345.863547 26.170499 
L 339.533263 27.182618 
L 332.707438 28.474815 
L 326.212342 29.897911 
L 319.182759 31.650753 
L 313.72087 33.165283 
L 305.85766 35.580019 
L 299.136016 37.86345 
L 290.864212 40.950878 
L 284.902489 43.365861 
L 277.794627 46.452896 
L 270.847296 49.688603 
L 262.926667 53.64101 
L 258.38995 56.03124 
L 249.881733 60.762144 
L 242.118695 65.361211 
L 234.273951 70.282528 
L 225.072915 76.405483 
L 216.594631 82.382713 
L 208.972083 88.03114 
L 202.063617 93.374944 
L 196.762485 97.620212 
L 186.77599 105.959084 
L 176.297221 115.188649 
L 166.823321 123.955917 
L 159.506274 131.001993 
L 152.203264 138.273351 
L 144.151652 146.566575 
L 134.45999 156.933667 
L 125.994475 166.332945 
L 116.021955 177.816701 
L 107.425726 188.072608 
L 99.5754 197.727368 
L 89.355218 210.709764 
L 79.773636 223.305317 
L 70.283231 236.185835 
L 59.218105 251.712295 
L 49.62755 265.612719 
L 41.368975 277.91228 
L 29.995751 295.349888 
L 24.608801 303.811177 
L 24.608801 303.811177 
" style="fill:none;stroke:#0085ff;stroke-linecap:square;"/>
   </g>
   <g id="line2d_66">
    <path clip-path="url(#p7ed663aaeb)" d="M 550.938462 88.190211 
L 544.149296 83.054747 
L 534.885449 76.379992 
L 526.957676 70.972725 
L 518.879203 65.751875 
L 510.922606 60.895142 
L 507.103424 58.664488 
L 497.054046 53.106701 
L 490.877872 49.915114 
L 482.287765 45.759803 
L 473.04415 41.657065 
L 465.60822 38.634059 
L 457.864595 35.748859 
L 450.259481 33.176341 
L 445.604434 31.729363 
L 436.714166 29.235237 
L 427.909886 27.113666 
L 421.834349 25.851834 
L 414.774371 24.592956 
L 407.687067 23.553458 
L 400.892128 22.767815 
L 393.337714 22.136808 
L 385.342316 21.747033 
L 378.651193 21.640628 
L 370.722268 21.773807 
L 363.138253 22.164326 
L 357.595072 22.612506 
L 350.106516 23.436239 
L 341.985442 24.613072 
L 334.816428 25.897104 
L 325.229814 27.973409 
L 316.951586 30.097104 
L 309.675668 32.216783 
L 305.388458 33.576642 
L 296.717333 36.578344 
L 289.337301 39.398046 
L 281.129224 42.820287 
L 276.186353 45.026533 
L 269.990012 47.946637 
L 260.501512 52.751072 
L 250.622403 58.181225 
L 243.707312 62.241917 
L 236.034574 66.997852 
L 231.154669 70.159657 
L 220.613933 77.352792 
L 214.386148 81.836281 
L 207.202386 87.223478 
L 197.98839 94.471095 
L 189.367398 101.596149 
L 183.06983 107.011073 
L 175.142723 114.079345 
L 165.990646 122.58947 
L 158.859728 129.479902 
L 151.660249 136.667332 
L 141.503615 147.201232 
L 134.434699 154.805061 
L 124.046631 166.384796 
L 113.509768 178.623523 
L 106.142889 187.475258 
L 98.653006 196.723666 
L 88.509896 209.648262 
L 78.790481 222.464753 
L 68.321299 236.74264 
L 58.1952 251.019069 
L 46.884198 267.508365 
L 37.096873 282.238274 
L 26.722485 298.319527 
L 23.249094 303.811177 
L 23.249094 303.811177 
" style="fill:none;stroke:#0066ff;stroke-linecap:square;"/>
   </g>
   <g id="line2d_67">
    <path clip-path="url(#p7ed663aaeb)" d="M 550.938462 86.034001 
L 543.129864 80.145222 
L 535.84313 74.896016 
L 526.603269 68.581352 
L 518.727156 63.500201 
L 510.774255 58.651067 
L 504.382168 54.958693 
L 495.902548 50.342506 
L 487.911662 46.286743 
L 479.232824 42.205387 
L 470.690173 38.517113 
L 461.903726 35.064125 
L 455.79449 32.866786 
L 447.075796 30.020035 
L 439.623101 27.856201 
L 432.272194 25.965305 
L 426.783628 24.711076 
L 420.603736 23.460147 
L 413.608869 22.250365 
L 405.763258 21.153855 
L 398.84022 20.414961 
L 391.295067 19.853824 
L 386.355134 19.624381 
L 378.111422 19.484565 
L 371.944122 19.578745 
L 365.251583 19.873438 
L 357.947614 20.423699 
L 349.474244 21.361062 
L 343.925174 22.148957 
L 336.073467 23.499126 
L 331.31545 24.451497 
L 322.880447 26.388752 
L 317.864985 27.691526 
L 308.899317 30.300728 
L 301.26881 32.804603 
L 293.907366 35.467022 
L 288.235611 37.68366 
L 280.575722 40.905699 
L 271.92311 44.860998 
L 264.820098 48.358241 
L 256.685677 52.640529 
L 247.62258 57.760308 
L 240.627605 61.963022 
L 233.042615 66.767569 
L 223.380867 73.260283 
L 218.410749 76.762861 
L 211.064192 82.142557 
L 203.076735 88.265504 
L 197.48653 92.720549 
L 188.311649 100.335342 
L 179.71556 107.811421 
L 170.203592 116.469283 
L 163.828123 122.498824 
L 154.485768 131.662691 
L 147.123871 139.15898 
L 139.014931 147.696534 
L 131.274428 156.120565 
L 121.109181 167.590553 
L 111.891923 178.390446 
L 102.70081 189.53812 
L 93.537512 201.02822 
L 82.513073 215.349824 
L 74.997171 225.425227 
L 65.072594 239.116694 
L 57.390892 250.016487 
L 48.26108 263.314331 
L 37.885471 278.879354 
L 28.44821 293.454904 
L 21.894573 303.811177 
L 21.894573 303.811177 
" style="fill:none;stroke:#0047ff;stroke-linecap:square;"/>
   </g>
   <g id="line2d_68">
    <path clip-path="url(#p7ed663aaeb)" d="M 550.938462 83.877792 
L 544.167813 78.756055 
L 536.156362 72.960566 
L 527.712177 67.162821 
L 519.883436 62.072569 
L 511.881222 57.152861 
L 502.446633 51.720475 
L 495.268394 47.853997 
L 487.178478 43.772713 
L 478.531681 39.734163 
L 473.097564 37.367256 
L 466.453795 34.652936 
L 458.167426 31.544232 
L 450.206575 28.846932 
L 441.509555 26.224224 
L 434.077508 24.25109 
L 429.485924 23.155546 
L 419.691046 21.133669 
L 414.572699 20.247851 
L 407.868766 19.264882 
L 400.364838 18.403065 
L 393.104433 17.808966 
L 384.99637 17.424203 
L 378.402699 17.328114 
L 370.80988 17.458379 
L 362.340636 17.90793 
L 355.622448 18.492737 
L 348.60171 19.319614 
L 340.566664 20.536521 
L 335.39393 21.472735 
L 327.752867 23.074677 
L 319.953275 24.979208 
L 311.959015 27.213664 
L 303.685653 29.827148 
L 295.251249 32.806682 
L 287.371285 35.877882 
L 279.833369 39.075701 
L 272.736701 42.318613 
L 266.953666 45.127833 
L 258.953773 49.260543 
L 250.633707 53.862343 
L 242.57464 58.615014 
L 235.928299 62.753157 
L 228.39355 67.683419 
L 219.110926 74.10653 
L 211.258452 79.840988 
L 203.190365 86.020187 
L 194.377273 93.10272 
L 185.85899 100.278527 
L 178.772533 106.495488 
L 170.330451 114.194943 
L 162.151029 121.958914 
L 153.266618 130.731137 
L 145.18166 139.020854 
L 136.73433 147.994466 
L 127.13287 158.581699 
L 117.342484 169.801877 
L 108.210171 180.654376 
L 101.520737 188.840564 
L 91.158906 201.91601 
L 82.841058 212.75969 
L 73.598162 225.172346 
L 63.454609 239.234348 
L 56.23476 249.523601 
L 44.318268 267.016224 
L 37.271417 277.659414 
L 26.440992 294.450156 
L 20.545179 303.811177 
L 20.545179 303.811177 
" style="fill:none;stroke:#0029ff;stroke-linecap:square;"/>
   </g>
   <g id="line2d_69">
    <path clip-path="url(#p7ed663aaeb)" d="M 550.938462 81.721582 
L 541.342079 74.522934 
L 532.788189 68.453543 
L 526.825485 64.416317 
L 517.904954 58.673347 
L 510.984017 54.462914 
L 502.614884 49.657656 
L 494.061915 45.070557 
L 487.867565 41.952735 
L 480.067246 38.270728 
L 471.378761 34.489894 
L 462.730936 31.062065 
L 454.495608 28.108712 
L 450.687479 26.845617 
L 444.032827 24.794101 
L 436.835778 22.79834 
L 430.350559 21.198429 
L 423.659915 19.745005 
L 414.615278 18.098527 
L 408.731855 17.223948 
L 401.733126 16.385225 
L 394.190636 15.726638 
L 387.341231 15.349042 
L 382.127325 15.202283 
L 374.003125 15.215964 
L 367.42929 15.443138 
L 358.64011 16.048869 
L 349.415496 17.056263 
L 342.504951 18.060328 
L 335.223377 19.349432 
L 328.949008 20.650456 
L 321.732692 22.364535 
L 314.777126 24.237147 
L 307.220071 26.516985 
L 300.611125 28.720188 
L 290.812703 32.346223 
L 283.126811 35.491046 
L 275.600642 38.826578 
L 267.852674 42.525093 
L 260.611648 46.224367 
L 250.903533 51.552036 
L 242.267581 56.645632 
L 233.523385 62.142978 
L 225.965438 67.170117 
L 216.879843 73.551572 
L 212.689867 76.618897 
L 203.297989 83.779634 
L 196.376687 89.309236 
L 187.146059 97.017273 
L 180.329641 102.953968 
L 173.792713 108.842475 
L 164.064246 117.959851 
L 156.176615 125.662793 
L 150.735019 131.139198 
L 142.093482 140.108205 
L 133.622882 149.223989 
L 124.866437 158.984774 
L 116.034959 169.176598 
L 105.329774 181.99851 
L 94.573443 195.397989 
L 84.080419 208.968149 
L 74.806267 221.372013 
L 65.205597 234.617878 
L 54.887688 249.31296 
L 44.947824 263.919975 
L 35.251209 278.595387 
L 27.343996 290.873942 
L 19.200853 303.811177 
L 19.200853 303.811177 
" style="fill:none;stroke:#000aff;stroke-linecap:square;"/>
   </g>
   <g id="line2d_70">
    <path clip-path="url(#p7ed663aaeb)" d="M 550.938462 79.565373 
L 541.11448 72.200994 
L 533.369835 66.699668 
L 524.646651 60.824537 
L 516.311229 55.528587 
L 508.068568 50.597196 
L 499.633812 45.865498 
L 491.603879 41.656596 
L 485.428543 38.615981 
L 478.733699 35.512282 
L 471.210717 32.263888 
L 462.922994 28.978351 
L 454.064893 25.806388 
L 448.882973 24.113534 
L 440.953396 21.755597 
L 433.317037 19.750707 
L 428.484259 18.616662 
L 421.421469 17.147236 
L 413.246125 15.724968 
L 406.413629 14.765656 
L 399.631338 14.019918 
L 392.045277 13.429587 
L 384.317462 13.092909 
L 378.750823 13.015905 
L 371.334551 13.128664 
L 365.071788 13.41549 
L 357.315114 14.013948 
L 351.48557 14.640862 
L 345.801294 15.398531 
L 337.898358 16.692093 
L 329.210758 18.436451 
L 324.207369 19.594276 
L 316.260138 21.663521 
L 308.476082 23.964157 
L 298.638683 27.259382 
L 290.673084 30.244785 
L 284.187801 32.884992 
L 277.834248 35.654014 
L 268.807071 39.898798 
L 261.531352 43.585298 
L 253.10454 48.150991 
L 245.863667 52.327869 
L 237.557288 57.408217 
L 229.085165 62.907865 
L 221.266605 68.268128 
L 213.990788 73.501925 
L 206.042587 79.490031 
L 198.628059 85.330834 
L 189.734431 92.661191 
L 180.251046 100.867423 
L 174.126766 106.380714 
L 164.98332 114.92419 
L 157.977611 121.72324 
L 149.777813 129.960016 
L 141.493002 138.587643 
L 133.508355 147.193229 
L 123.378347 158.52143 
L 114.486623 168.843166 
L 104.524186 180.827917 
L 94.033912 193.927521 
L 84.285738 206.541686 
L 74.337316 219.85323 
L 65.889928 231.503863 
L 55.122859 246.816509 
L 46.378611 259.633939 
L 36.845778 273.99697 
L 25.849463 291.069914 
L 17.861538 303.811177 
L 17.861538 303.811177 
" style="fill:none;stroke:#1400ff;stroke-linecap:square;"/>
   </g>
   <g id="patch_3">
    <path d="M 378.441689 309.627082 
L 378.441689 7.2 
" style="fill:none;stroke:#000000;stroke-linecap:square;stroke-linejoin:miter;stroke-width:0.8;"/>
   </g>
   <g id="patch_4">
    <path d="M 7.2 303.811177 
L 561.6 303.811177 
" style="fill:none;stroke:#000000;stroke-linecap:square;stroke-linejoin:miter;stroke-width:0.8;"/>
   </g>
  </g>
 </g>
 <defs>
  <clipPath id="p7ed663aaeb">
   <rect height="302.427082" width="554.4" x="7.2" y="7.2"/>
  </clipPath>
 </defs>
</svg>
