<?xml version="1.0" encoding="utf-8" standalone="no"?>
<!DOCTYPE svg PUBLIC "-//W3C//DTD SVG 1.1//EN"
  "http://www.w3.org/Graphics/SVG/1.1/DTD/svg11.dtd">
<!-- Created with matplotlib (https://matplotlib.org/) -->
<svg height="247.792666pt" version="1.1" viewBox="0 0 566.809615 247.792666" width="566.809615pt" xmlns="http://www.w3.org/2000/svg" xmlns:xlink="http://www.w3.org/1999/xlink">
 <metadata>
  <rdf:RDF xmlns:cc="http://creativecommons.org/ns#" xmlns:dc="http://purl.org/dc/elements/1.1/" xmlns:rdf="http://www.w3.org/1999/02/22-rdf-syntax-ns#">
   <cc:Work>
    <dc:type rdf:resource="http://purl.org/dc/dcmitype/StillImage"/>
    <dc:date>2021-07-22T08:47:07.460968</dc:date>
    <dc:format>image/svg+xml</dc:format>
    <dc:creator>
     <cc:Agent>
      <dc:title>Matplotlib v3.3.4, https://matplotlib.org/</dc:title>
     </cc:Agent>
    </dc:creator>
   </cc:Work>
  </rdf:RDF>
 </metadata>
 <defs>
  <style type="text/css">*{stroke-linecap:butt;stroke-linejoin:round;}</style>
 </defs>
 <g id="figure_1">
  <g id="patch_1">
   <path d="M 0 247.792666 
L 566.809615 247.792666 
L 566.809615 0 
L 0 0 
z
" style="fill:#ffffff;"/>
  </g>
  <g id="axes_1">
   <g id="patch_2">
    <path d="M 7.2 228.163846 
L 559.609615 228.163846 
L 559.609615 7.2 
L 7.2 7.2 
z
" style="fill:#ffffff;"/>
   </g>
   <g id="matplotlib.axis_1">
    <g id="xtick_1">
     <g id="line2d_1">
      <defs>
       <path d="M 0 0 
L 0 3.5 
" id="m6ecb300f56" style="stroke:#000000;stroke-width:0.8;"/>
      </defs>
      <g>
       <use style="stroke:#000000;stroke-width:0.8;" x="17.823262" xlink:href="#m6ecb300f56" y="223.914541"/>
      </g>
     </g>
     <g id="text_1">
      <!-- −25 -->
      <g transform="translate(7.270918 238.512979)scale(0.1 -0.1)">
       <defs>
        <path d="M 10.59375 35.5 
L 73.1875 35.5 
L 73.1875 27.203125 
L 10.59375 27.203125 
z
" id="DejaVuSans-8722"/>
        <path d="M 19.1875 8.296875 
L 53.609375 8.296875 
L 53.609375 0 
L 7.328125 0 
L 7.328125 8.296875 
Q 12.9375 14.109375 22.625 23.890625 
Q 32.328125 33.6875 34.8125 36.53125 
Q 39.546875 41.84375 41.421875 45.53125 
Q 43.3125 49.21875 43.3125 52.78125 
Q 43.3125 58.59375 39.234375 62.25 
Q 35.15625 65.921875 28.609375 65.921875 
Q 23.96875 65.921875 18.8125 64.3125 
Q 13.671875 62.703125 7.8125 59.421875 
L 7.8125 69.390625 
Q 13.765625 71.78125 18.9375 73 
Q 24.125 74.21875 28.421875 74.21875 
Q 39.75 74.21875 46.484375 68.546875 
Q 53.21875 62.890625 53.21875 53.421875 
Q 53.21875 48.921875 51.53125 44.890625 
Q 49.859375 40.875 45.40625 35.40625 
Q 44.1875 33.984375 37.640625 27.21875 
Q 31.109375 20.453125 19.1875 8.296875 
z
" id="DejaVuSans-50"/>
        <path d="M 10.796875 72.90625 
L 49.515625 72.90625 
L 49.515625 64.59375 
L 19.828125 64.59375 
L 19.828125 46.734375 
Q 21.96875 47.46875 24.109375 47.828125 
Q 26.265625 48.1875 28.421875 48.1875 
Q 40.625 48.1875 47.75 41.5 
Q 54.890625 34.8125 54.890625 23.390625 
Q 54.890625 11.625 47.5625 5.09375 
Q 40.234375 -1.421875 26.90625 -1.421875 
Q 22.3125 -1.421875 17.546875 -0.640625 
Q 12.796875 0.140625 7.71875 1.703125 
L 7.71875 11.625 
Q 12.109375 9.234375 16.796875 8.0625 
Q 21.484375 6.890625 26.703125 6.890625 
Q 35.15625 6.890625 40.078125 11.328125 
Q 45.015625 15.765625 45.015625 23.390625 
Q 45.015625 31 40.078125 35.4375 
Q 35.15625 39.890625 26.703125 39.890625 
Q 22.75 39.890625 18.8125 39.015625 
Q 14.890625 38.140625 10.796875 36.28125 
z
" id="DejaVuSans-53"/>
       </defs>
       <use xlink:href="#DejaVuSans-8722"/>
       <use x="83.789062" xlink:href="#DejaVuSans-50"/>
       <use x="147.412109" xlink:href="#DejaVuSans-53"/>
      </g>
     </g>
    </g>
    <g id="xtick_2">
     <g id="line2d_2">
      <g>
       <use style="stroke:#000000;stroke-width:0.8;" x="124.05588" xlink:href="#m6ecb300f56" y="223.914541"/>
      </g>
     </g>
     <g id="text_2">
      <!-- −20 -->
      <g transform="translate(113.503536 238.512979)scale(0.1 -0.1)">
       <defs>
        <path d="M 31.78125 66.40625 
Q 24.171875 66.40625 20.328125 58.90625 
Q 16.5 51.421875 16.5 36.375 
Q 16.5 21.390625 20.328125 13.890625 
Q 24.171875 6.390625 31.78125 6.390625 
Q 39.453125 6.390625 43.28125 13.890625 
Q 47.125 21.390625 47.125 36.375 
Q 47.125 51.421875 43.28125 58.90625 
Q 39.453125 66.40625 31.78125 66.40625 
z
M 31.78125 74.21875 
Q 44.046875 74.21875 50.515625 64.515625 
Q 56.984375 54.828125 56.984375 36.375 
Q 56.984375 17.96875 50.515625 8.265625 
Q 44.046875 -1.421875 31.78125 -1.421875 
Q 19.53125 -1.421875 13.0625 8.265625 
Q 6.59375 17.96875 6.59375 36.375 
Q 6.59375 54.828125 13.0625 64.515625 
Q 19.53125 74.21875 31.78125 74.21875 
z
" id="DejaVuSans-48"/>
       </defs>
       <use xlink:href="#DejaVuSans-8722"/>
       <use x="83.789062" xlink:href="#DejaVuSans-50"/>
       <use x="147.412109" xlink:href="#DejaVuSans-48"/>
      </g>
     </g>
    </g>
    <g id="xtick_3">
     <g id="line2d_3">
      <g>
       <use style="stroke:#000000;stroke-width:0.8;" x="230.288499" xlink:href="#m6ecb300f56" y="223.914541"/>
      </g>
     </g>
     <g id="text_3">
      <!-- −15 -->
      <g transform="translate(219.736155 238.512979)scale(0.1 -0.1)">
       <defs>
        <path d="M 12.40625 8.296875 
L 28.515625 8.296875 
L 28.515625 63.921875 
L 10.984375 60.40625 
L 10.984375 69.390625 
L 28.421875 72.90625 
L 38.28125 72.90625 
L 38.28125 8.296875 
L 54.390625 8.296875 
L 54.390625 0 
L 12.40625 0 
z
" id="DejaVuSans-49"/>
       </defs>
       <use xlink:href="#DejaVuSans-8722"/>
       <use x="83.789062" xlink:href="#DejaVuSans-49"/>
       <use x="147.412109" xlink:href="#DejaVuSans-53"/>
      </g>
     </g>
    </g>
    <g id="xtick_4">
     <g id="line2d_4">
      <g>
       <use style="stroke:#000000;stroke-width:0.8;" x="336.521117" xlink:href="#m6ecb300f56" y="223.914541"/>
      </g>
     </g>
     <g id="text_4">
      <!-- −10 -->
      <g transform="translate(325.968773 238.512979)scale(0.1 -0.1)">
       <use xlink:href="#DejaVuSans-8722"/>
       <use x="83.789062" xlink:href="#DejaVuSans-49"/>
       <use x="147.412109" xlink:href="#DejaVuSans-48"/>
      </g>
     </g>
    </g>
    <g id="xtick_5">
     <g id="line2d_5">
      <g>
       <use style="stroke:#000000;stroke-width:0.8;" x="442.753735" xlink:href="#m6ecb300f56" y="223.914541"/>
      </g>
     </g>
     <g id="text_5">
      <!-- −5 -->
      <g transform="translate(435.382641 238.512979)scale(0.1 -0.1)">
       <use xlink:href="#DejaVuSans-8722"/>
       <use x="83.789062" xlink:href="#DejaVuSans-53"/>
      </g>
     </g>
    </g>
    <g id="xtick_6">
     <g id="line2d_6">
      <g>
       <use style="stroke:#000000;stroke-width:0.8;" x="548.986354" xlink:href="#m6ecb300f56" y="223.914541"/>
      </g>
     </g>
    </g>
    <g id="xtick_7">
     <g id="line2d_7">
      <defs>
       <path d="M 0 0 
L 0 2 
" id="mfd2c419ee9" style="stroke:#000000;stroke-width:0.6;"/>
      </defs>
      <g>
       <use style="stroke:#000000;stroke-width:0.6;" x="39.069786" xlink:href="#mfd2c419ee9" y="223.914541"/>
      </g>
     </g>
    </g>
    <g id="xtick_8">
     <g id="line2d_8">
      <g>
       <use style="stroke:#000000;stroke-width:0.6;" x="60.316309" xlink:href="#mfd2c419ee9" y="223.914541"/>
      </g>
     </g>
    </g>
    <g id="xtick_9">
     <g id="line2d_9">
      <g>
       <use style="stroke:#000000;stroke-width:0.6;" x="81.562833" xlink:href="#mfd2c419ee9" y="223.914541"/>
      </g>
     </g>
    </g>
    <g id="xtick_10">
     <g id="line2d_10">
      <g>
       <use style="stroke:#000000;stroke-width:0.6;" x="102.809357" xlink:href="#mfd2c419ee9" y="223.914541"/>
      </g>
     </g>
    </g>
    <g id="xtick_11">
     <g id="line2d_11">
      <g>
       <use style="stroke:#000000;stroke-width:0.6;" x="145.302404" xlink:href="#mfd2c419ee9" y="223.914541"/>
      </g>
     </g>
    </g>
    <g id="xtick_12">
     <g id="line2d_12">
      <g>
       <use style="stroke:#000000;stroke-width:0.6;" x="166.548928" xlink:href="#mfd2c419ee9" y="223.914541"/>
      </g>
     </g>
    </g>
    <g id="xtick_13">
     <g id="line2d_13">
      <g>
       <use style="stroke:#000000;stroke-width:0.6;" x="187.795451" xlink:href="#mfd2c419ee9" y="223.914541"/>
      </g>
     </g>
    </g>
    <g id="xtick_14">
     <g id="line2d_14">
      <g>
       <use style="stroke:#000000;stroke-width:0.6;" x="209.041975" xlink:href="#mfd2c419ee9" y="223.914541"/>
      </g>
     </g>
    </g>
    <g id="xtick_15">
     <g id="line2d_15">
      <g>
       <use style="stroke:#000000;stroke-width:0.6;" x="251.535022" xlink:href="#mfd2c419ee9" y="223.914541"/>
      </g>
     </g>
    </g>
    <g id="xtick_16">
     <g id="line2d_16">
      <g>
       <use style="stroke:#000000;stroke-width:0.6;" x="272.781546" xlink:href="#mfd2c419ee9" y="223.914541"/>
      </g>
     </g>
    </g>
    <g id="xtick_17">
     <g id="line2d_17">
      <g>
       <use style="stroke:#000000;stroke-width:0.6;" x="294.02807" xlink:href="#mfd2c419ee9" y="223.914541"/>
      </g>
     </g>
    </g>
    <g id="xtick_18">
     <g id="line2d_18">
      <g>
       <use style="stroke:#000000;stroke-width:0.6;" x="315.274593" xlink:href="#mfd2c419ee9" y="223.914541"/>
      </g>
     </g>
    </g>
    <g id="xtick_19">
     <g id="line2d_19">
      <g>
       <use style="stroke:#000000;stroke-width:0.6;" x="357.767641" xlink:href="#mfd2c419ee9" y="223.914541"/>
      </g>
     </g>
    </g>
    <g id="xtick_20">
     <g id="line2d_20">
      <g>
       <use style="stroke:#000000;stroke-width:0.6;" x="379.014164" xlink:href="#mfd2c419ee9" y="223.914541"/>
      </g>
     </g>
    </g>
    <g id="xtick_21">
     <g id="line2d_21">
      <g>
       <use style="stroke:#000000;stroke-width:0.6;" x="400.260688" xlink:href="#mfd2c419ee9" y="223.914541"/>
      </g>
     </g>
    </g>
    <g id="xtick_22">
     <g id="line2d_22">
      <g>
       <use style="stroke:#000000;stroke-width:0.6;" x="421.507212" xlink:href="#mfd2c419ee9" y="223.914541"/>
      </g>
     </g>
    </g>
    <g id="xtick_23">
     <g id="line2d_23">
      <g>
       <use style="stroke:#000000;stroke-width:0.6;" x="464.000259" xlink:href="#mfd2c419ee9" y="223.914541"/>
      </g>
     </g>
    </g>
    <g id="xtick_24">
     <g id="line2d_24">
      <g>
       <use style="stroke:#000000;stroke-width:0.6;" x="485.246783" xlink:href="#mfd2c419ee9" y="223.914541"/>
      </g>
     </g>
    </g>
    <g id="xtick_25">
     <g id="line2d_25">
      <g>
       <use style="stroke:#000000;stroke-width:0.6;" x="506.493306" xlink:href="#mfd2c419ee9" y="223.914541"/>
      </g>
     </g>
    </g>
    <g id="xtick_26">
     <g id="line2d_26">
      <g>
       <use style="stroke:#000000;stroke-width:0.6;" x="527.73983" xlink:href="#mfd2c419ee9" y="223.914541"/>
      </g>
     </g>
    </g>
   </g>
   <g id="matplotlib.axis_2">
    <g id="ytick_1">
     <g id="line2d_27">
      <defs>
       <path d="M 0 0 
L -3.5 0 
" id="m8af5250a1a" style="stroke:#000000;stroke-width:0.8;"/>
      </defs>
      <g>
       <use style="stroke:#000000;stroke-width:0.8;" x="548.986354" xlink:href="#m8af5250a1a" y="223.914541"/>
      </g>
     </g>
    </g>
    <g id="ytick_2">
     <g id="line2d_28">
      <g>
       <use style="stroke:#000000;stroke-width:0.8;" x="548.986354" xlink:href="#m8af5250a1a" y="170.798232"/>
      </g>
     </g>
     <g id="text_6">
      <!-- 5 -->
      <g transform="translate(535.623854 174.597451)scale(0.1 -0.1)">
       <use xlink:href="#DejaVuSans-53"/>
      </g>
     </g>
    </g>
    <g id="ytick_3">
     <g id="line2d_29">
      <g>
       <use style="stroke:#000000;stroke-width:0.8;" x="548.986354" xlink:href="#m8af5250a1a" y="117.681923"/>
      </g>
     </g>
     <g id="text_7">
      <!-- 10 -->
      <g transform="translate(529.261354 121.481142)scale(0.1 -0.1)">
       <use xlink:href="#DejaVuSans-49"/>
       <use x="63.623047" xlink:href="#DejaVuSans-48"/>
      </g>
     </g>
    </g>
    <g id="ytick_4">
     <g id="line2d_30">
      <g>
       <use style="stroke:#000000;stroke-width:0.8;" x="548.986354" xlink:href="#m8af5250a1a" y="64.565614"/>
      </g>
     </g>
     <g id="text_8">
      <!-- 15 -->
      <g transform="translate(529.261354 68.364833)scale(0.1 -0.1)">
       <use xlink:href="#DejaVuSans-49"/>
       <use x="63.623047" xlink:href="#DejaVuSans-53"/>
      </g>
     </g>
    </g>
    <g id="ytick_5">
     <g id="line2d_31">
      <g>
       <use style="stroke:#000000;stroke-width:0.8;" x="548.986354" xlink:href="#m8af5250a1a" y="11.449305"/>
      </g>
     </g>
     <g id="text_9">
      <!-- 20 -->
      <g transform="translate(529.261354 15.248523)scale(0.1 -0.1)">
       <use xlink:href="#DejaVuSans-50"/>
       <use x="63.623047" xlink:href="#DejaVuSans-48"/>
      </g>
     </g>
    </g>
    <g id="ytick_6">
     <g id="line2d_32">
      <defs>
       <path d="M 0 0 
L -2 0 
" id="mbad790a657" style="stroke:#000000;stroke-width:0.6;"/>
      </defs>
      <g>
       <use style="stroke:#000000;stroke-width:0.6;" x="548.986354" xlink:href="#mbad790a657" y="213.29128"/>
      </g>
     </g>
    </g>
    <g id="ytick_7">
     <g id="line2d_33">
      <g>
       <use style="stroke:#000000;stroke-width:0.6;" x="548.986354" xlink:href="#mbad790a657" y="202.668018"/>
      </g>
     </g>
    </g>
    <g id="ytick_8">
     <g id="line2d_34">
      <g>
       <use style="stroke:#000000;stroke-width:0.6;" x="548.986354" xlink:href="#mbad790a657" y="192.044756"/>
      </g>
     </g>
    </g>
    <g id="ytick_9">
     <g id="line2d_35">
      <g>
       <use style="stroke:#000000;stroke-width:0.6;" x="548.986354" xlink:href="#mbad790a657" y="181.421494"/>
      </g>
     </g>
    </g>
    <g id="ytick_10">
     <g id="line2d_36">
      <g>
       <use style="stroke:#000000;stroke-width:0.6;" x="548.986354" xlink:href="#mbad790a657" y="160.17497"/>
      </g>
     </g>
    </g>
    <g id="ytick_11">
     <g id="line2d_37">
      <g>
       <use style="stroke:#000000;stroke-width:0.6;" x="548.986354" xlink:href="#mbad790a657" y="149.551709"/>
      </g>
     </g>
    </g>
    <g id="ytick_12">
     <g id="line2d_38">
      <g>
       <use style="stroke:#000000;stroke-width:0.6;" x="548.986354" xlink:href="#mbad790a657" y="138.928447"/>
      </g>
     </g>
    </g>
    <g id="ytick_13">
     <g id="line2d_39">
      <g>
       <use style="stroke:#000000;stroke-width:0.6;" x="548.986354" xlink:href="#mbad790a657" y="128.305185"/>
      </g>
     </g>
    </g>
    <g id="ytick_14">
     <g id="line2d_40">
      <g>
       <use style="stroke:#000000;stroke-width:0.6;" x="548.986354" xlink:href="#mbad790a657" y="107.058661"/>
      </g>
     </g>
    </g>
    <g id="ytick_15">
     <g id="line2d_41">
      <g>
       <use style="stroke:#000000;stroke-width:0.6;" x="548.986354" xlink:href="#mbad790a657" y="96.435399"/>
      </g>
     </g>
    </g>
    <g id="ytick_16">
     <g id="line2d_42">
      <g>
       <use style="stroke:#000000;stroke-width:0.6;" x="548.986354" xlink:href="#mbad790a657" y="85.812138"/>
      </g>
     </g>
    </g>
    <g id="ytick_17">
     <g id="line2d_43">
      <g>
       <use style="stroke:#000000;stroke-width:0.6;" x="548.986354" xlink:href="#mbad790a657" y="75.188876"/>
      </g>
     </g>
    </g>
    <g id="ytick_18">
     <g id="line2d_44">
      <g>
       <use style="stroke:#000000;stroke-width:0.6;" x="548.986354" xlink:href="#mbad790a657" y="53.942352"/>
      </g>
     </g>
    </g>
    <g id="ytick_19">
     <g id="line2d_45">
      <g>
       <use style="stroke:#000000;stroke-width:0.6;" x="548.986354" xlink:href="#mbad790a657" y="43.31909"/>
      </g>
     </g>
    </g>
    <g id="ytick_20">
     <g id="line2d_46">
      <g>
       <use style="stroke:#000000;stroke-width:0.6;" x="548.986354" xlink:href="#mbad790a657" y="32.695828"/>
      </g>
     </g>
    </g>
    <g id="ytick_21">
     <g id="line2d_47">
      <g>
       <use style="stroke:#000000;stroke-width:0.6;" x="548.986354" xlink:href="#mbad790a657" y="22.072567"/>
      </g>
     </g>
    </g>
   </g>
   <g id="line2d_48">
    <path clip-path="url(#p6f3762076a)" d="M 1.906196 -1 
L 4.760663 1.468878 
L 20.894595 15.116563 
L 36.985366 28.257353 
L 51.657064 39.833285 
L 54.145416 41.758415 
L 65.965519 50.752717 
L 76.302434 58.415654 
L 90.221196 68.436965 
L 100.192449 75.407936 
L 109.467693 81.737249 
L 126.046682 92.680635 
L 133.271507 97.302044 
L 147.963293 106.425485 
L 161.4583 114.483842 
L 165.588243 116.888746 
L 176.413536 123.05693 
L 193.824782 132.568754 
L 203.927992 137.858537 
L 218.460918 145.174121 
L 227.211215 149.412862 
L 240.201989 155.477171 
L 248.030932 159.000659 
L 267.52109 167.34699 
L 276.286338 170.904003 
L 292.113757 177.020494 
L 309.692612 183.355125 
L 325.241827 188.559625 
L 334.466781 191.471796 
L 351.608974 196.538847 
L 363.866289 199.889305 
L 370.306044 201.559066 
L 386.094744 205.390789 
L 395.241677 207.441274 
L 411.160989 210.715872 
L 426.726774 213.559301 
L 438.150593 215.422395 
L 448.038158 216.883098 
L 457.788204 218.186305 
L 475.10491 220.167379 
L 492.032938 221.694876 
L 505.165729 222.603753 
L 515.417841 223.146822 
L 528.534147 223.63026 
L 536.88658 223.815197 
L 548.986354 223.914541 
L 548.986354 223.914541 
" style="fill:none;stroke:#ff0000;stroke-linecap:square;"/>
   </g>
   <g id="line2d_49">
    <path clip-path="url(#p6f3762076a)" d="M -1 -0.887548 
L 4.591491 3.903117 
L 13.686277 11.566814 
L 29.678469 24.682041 
L 47.349472 38.643614 
L 61.467488 49.401295 
L 76.698886 60.615551 
L 91.752642 71.302662 
L 102.877422 78.949192 
L 109.1943 83.196546 
L 127.238706 94.954668 
L 140.469043 103.225637 
L 156.815447 113.038977 
L 168.718826 119.905006 
L 182.115129 127.352105 
L 189.373304 131.263831 
L 207.417253 140.616072 
L 217.459033 145.592214 
L 223.956352 148.72539 
L 241.73246 156.952224 
L 254.089661 162.375212 
L 263.366056 166.287828 
L 272.574958 170.038412 
L 291.396951 177.29307 
L 306.635727 182.765375 
L 324.547623 188.742946 
L 340.53643 193.667457 
L 354.042943 197.527779 
L 363.269028 200.008073 
L 380.535219 204.310741 
L 392.146114 206.957326 
L 402.492421 209.149648 
L 418.37965 212.21362 
L 425.034379 213.388839 
L 437.322179 215.392057 
L 453.010828 217.637188 
L 462.757548 218.856715 
L 473.499185 220.046169 
L 487.340847 221.34145 
L 500.175941 222.305264 
L 513.128552 223.048143 
L 525.980429 223.55876 
L 542.417627 223.885626 
L 548.986354 223.914541 
L 548.986354 223.914541 
" style="fill:none;stroke:#ff0f00;stroke-linecap:square;"/>
   </g>
   <g id="line2d_50">
    <path clip-path="url(#p6f3762076a)" d="M -1 1.687894 
L 8.268506 9.50417 
L 22.965435 21.575959 
L 30.697082 27.772989 
L 46.046706 39.764263 
L 60.519322 50.693298 
L 66.243401 54.915491 
L 79.281918 64.321866 
L 92.722522 73.713018 
L 108.24456 84.175789 
L 123.590239 94.119675 
L 133.909551 100.584535 
L 150.11366 110.37863 
L 163.613511 118.207107 
L 170.416873 122.039036 
L 187.20611 131.172717 
L 206.524113 141.118279 
L 209.194699 142.446056 
L 227.759983 151.362367 
L 238.972474 156.48295 
L 247.110663 160.075693 
L 256.349692 164.028816 
L 265.80804 167.938104 
L 282.223509 174.394352 
L 298.174096 180.27149 
L 309.037096 184.052251 
L 321.551934 188.186731 
L 337.166335 193.015518 
L 350.171854 196.760222 
L 363.706718 200.391813 
L 379.310359 204.245011 
L 386.866967 205.98356 
L 402.879354 209.394582 
L 416.081973 211.929981 
L 424.484302 213.414046 
L 441.712451 216.144241 
L 458.434056 218.395238 
L 468.804455 219.595449 
L 486.602706 221.308798 
L 503.627543 222.54136 
L 515.160769 223.152537 
L 529.774081 223.669388 
L 536.814899 223.816278 
L 548.986354 223.914541 
L 548.986354 223.914541 
" style="fill:none;stroke:#ff1f00;stroke-linecap:square;"/>
   </g>
   <g id="line2d_51">
    <path clip-path="url(#p6f3762076a)" d="M -1 4.199997 
L 8.992619 12.529366 
L 21.627384 22.795537 
L 31.029928 30.254019 
L 47.205876 42.725717 
L 58.943076 51.492209 
L 75.199244 63.244074 
L 83.342611 68.961955 
L 94.702908 76.751263 
L 113.204145 88.972904 
L 128.287247 98.514668 
L 140.772364 106.128631 
L 155.371446 114.707697 
L 174.741551 125.55567 
L 191.140317 134.267228 
L 204.142322 140.869207 
L 217.798079 147.514861 
L 227.541836 152.077361 
L 244.529924 159.6774 
L 255.460457 164.330785 
L 270.745109 170.529534 
L 282.408079 175.019354 
L 296.288682 180.093994 
L 310.203558 184.889961 
L 328.472915 190.747794 
L 343.833515 195.290668 
L 355.016874 198.380242 
L 372.879988 202.937459 
L 384.570928 205.670376 
L 404.142826 209.807435 
L 420.542252 212.855192 
L 436.636827 215.478642 
L 449.051125 217.255454 
L 459.877533 218.63085 
L 477.509367 220.526145 
L 487.698053 221.42804 
L 506.526845 222.725343 
L 519.817205 223.354689 
L 533.847859 223.764139 
L 548.986354 223.914541 
L 548.986354 223.914541 
" style="fill:none;stroke:#ff2e00;stroke-linecap:square;"/>
   </g>
   <g id="line2d_52">
    <path clip-path="url(#p6f3762076a)" d="M -1 6.667326 
L 10.074926 15.776852 
L 21.986611 25.331256 
L 39.772339 39.141033 
L 51.809263 48.179409 
L 69.434059 60.969331 
L 81.600849 69.49276 
L 98.760719 81.093198 
L 113.643269 90.758472 
L 126.705979 98.941481 
L 130.26672 101.123641 
L 141.884317 108.099814 
L 151.482511 113.698351 
L 165.526451 121.622703 
L 182.232654 130.638631 
L 197.389664 138.435683 
L 209.024585 144.175769 
L 217.607028 148.274341 
L 233.559065 155.588499 
L 242.148658 159.364267 
L 253.108203 164.017574 
L 268.223693 170.135235 
L 280.453301 174.831948 
L 292.948387 179.398637 
L 302.223848 182.637932 
L 319.14289 188.218229 
L 336.190174 193.415165 
L 349.618504 197.210615 
L 353.79247 198.337163 
L 372.149282 202.994119 
L 381.717335 205.230374 
L 399.423999 209.026314 
L 413.233886 211.680542 
L 428.447673 214.29649 
L 438.231172 215.809293 
L 454.781865 218.068851 
L 467.769085 219.580087 
L 477.022333 220.517371 
L 492.766737 221.847329 
L 507.084463 222.76925 
L 523.550722 223.493814 
L 536.350709 223.810962 
L 548.986354 223.914541 
L 548.986354 223.914541 
" style="fill:none;stroke:#ff3d00;stroke-linecap:square;"/>
   </g>
   <g id="line2d_53">
    <path clip-path="url(#p6f3762076a)" d="M -1 9.071477 
L 8.456067 16.778897 
L 23.119889 28.415573 
L 35.334975 37.828425 
L 48.776146 47.893511 
L 63.206482 58.360539 
L 74.413295 66.24909 
L 92.069314 78.254384 
L 107.592101 88.385197 
L 117.424797 94.598775 
L 130.562229 102.655935 
L 143.634216 110.396857 
L 155.283868 117.065004 
L 170.002537 125.181416 
L 182.631867 131.873164 
L 194.371263 137.869245 
L 202.568321 141.928743 
L 218.069745 149.321367 
L 231.102781 155.250953 
L 248.170947 162.624724 
L 257.381406 166.420623 
L 275.750548 173.610746 
L 290.429548 178.99506 
L 307.774485 184.947243 
L 326.589058 190.906217 
L 339.427131 194.677782 
L 355.903118 199.171107 
L 370.248255 202.768199 
L 384.576495 206.070664 
L 398.780833 209.060354 
L 413.621234 211.884047 
L 426.276255 214.051702 
L 442.246499 216.474119 
L 453.525218 217.975965 
L 463.555284 219.167233 
L 478.823503 220.721586 
L 490.412365 221.694047 
L 508.571001 222.860971 
L 520.955907 223.408915 
L 537.821716 223.834577 
L 548.986354 223.914541 
L 548.986354 223.914541 
" style="fill:none;stroke:#ff4d00;stroke-linecap:square;"/>
   </g>
   <g id="line2d_54">
    <path clip-path="url(#p6f3762076a)" d="M -1 11.432267 
L 6.540341 17.517175 
L 17.544343 26.223022 
L 34.041689 38.890981 
L 52.282881 52.366129 
L 68.020434 63.547015 
L 80.428003 72.074047 
L 95.118081 81.843917 
L 113.771212 93.744616 
L 127.540459 102.170085 
L 143.739092 111.694821 
L 154.914136 118.023467 
L 171.342683 126.970998 
L 186.756241 134.98314 
L 198.31937 140.752528 
L 208.993853 145.896189 
L 218.853835 150.492746 
L 236.137311 158.194193 
L 251.837298 164.800328 
L 260.619754 168.33516 
L 271.518306 172.562522 
L 282.228694 176.546098 
L 300.066578 182.807525 
L 315.688275 187.911123 
L 326.138261 191.128686 
L 341.168298 195.482394 
L 355.586332 199.357191 
L 371.581388 203.31308 
L 384.216595 206.185148 
L 399.513772 209.366021 
L 411.108088 211.562296 
L 426.578658 214.206838 
L 439.268763 216.133768 
L 450.283597 217.630538 
L 466.768341 219.567665 
L 486.275599 221.394835 
L 500.279257 222.398472 
L 513.916792 223.130581 
L 526.76833 223.60063 
L 542.855082 223.890707 
L 548.986354 223.914541 
L 548.986354 223.914541 
" style="fill:none;stroke:#ff5c00;stroke-linecap:square;"/>
   </g>
   <g id="line2d_55">
    <path clip-path="url(#p6f3762076a)" d="M -1 13.730469 
L 2.869475 16.835606 
L 19.000938 29.488702 
L 34.756111 41.426128 
L 51.755803 53.844492 
L 64.599649 62.911545 
L 71.496359 67.668944 
L 87.125162 78.163819 
L 94.56585 83.021615 
L 105.681304 90.112926 
L 124.371333 101.592248 
L 139.53949 110.502129 
L 152.337156 117.738782 
L 166.089066 125.230736 
L 182.817527 133.950364 
L 200.8336 142.861774 
L 209.78628 147.106651 
L 227.030904 154.942611 
L 240.029487 160.554962 
L 256.707211 167.388579 
L 267.248664 171.496523 
L 284.460783 177.854926 
L 289.574696 179.661146 
L 300.884265 183.521565 
L 312.670848 187.349287 
L 330.456716 192.750328 
L 346.963702 197.362835 
L 363.384737 201.5726 
L 373.62632 204.008417 
L 390.746808 207.757347 
L 403.44991 210.279727 
L 420.74645 213.362157 
L 435.151615 215.621998 
L 440.654627 216.412072 
L 452.357152 217.958423 
L 461.427602 219.032374 
L 477.335472 220.654885 
L 490.725799 221.764744 
L 507.025042 222.802727 
L 525.903462 223.579272 
L 542.521751 223.888326 
L 548.986354 223.914541 
L 548.986354 223.914541 
" style="fill:none;stroke:#ff6b00;stroke-linecap:square;"/>
   </g>
   <g id="line2d_56">
    <path clip-path="url(#p6f3762076a)" d="M -1 15.985362 
L 7.467665 22.667254 
L 23.131375 34.707112 
L 31.807632 41.201456 
L 44.270279 50.313564 
L 50.155985 54.528633 
L 67.713066 66.767877 
L 85.122484 78.413333 
L 99.581727 87.7171 
L 110.623001 94.598292 
L 123.851167 102.589578 
L 137.501145 110.548713 
L 152.373871 118.891497 
L 166.324612 126.407316 
L 180.737918 133.859833 
L 195.836236 141.328603 
L 207.354864 146.795779 
L 226.099084 155.268939 
L 236.168845 159.605815 
L 252.390588 166.278677 
L 270.890468 173.420211 
L 285.24371 178.620171 
L 302.554387 184.498967 
L 317.794247 189.322208 
L 331.069696 193.257128 
L 345.090757 197.145587 
L 359.796126 200.93086 
L 373.880248 204.277203 
L 389.358019 207.642355 
L 400.899564 209.940433 
L 417.394828 212.91403 
L 430.934777 215.083617 
L 444.791885 217.052826 
L 458.050581 218.700879 
L 473.063335 220.290362 
L 488.05042 221.586439 
L 504.474638 222.676082 
L 512.132033 223.066741 
L 531.986718 223.73482 
L 548.986354 223.914541 
L 548.986354 223.914541 
" style="fill:none;stroke:#ff7a00;stroke-linecap:square;"/>
   </g>
   <g id="line2d_57">
    <path clip-path="url(#p6f3762076a)" d="M -1 18.181898 
L 8.244561 25.401591 
L 24.54731 37.769368 
L 40.326401 49.326637 
L 55.05326 59.749527 
L 73.375783 72.23131 
L 84.200243 79.354022 
L 100.969962 90.023434 
L 118.227609 100.543298 
L 132.796107 109.06389 
L 148.519529 117.893267 
L 161.186788 124.731735 
L 176.791405 132.821572 
L 192.302445 140.499971 
L 208.012184 147.911016 
L 222.748388 154.531023 
L 235.930625 160.182921 
L 255.551144 168.127082 
L 261.94616 170.596201 
L 279.066201 176.917756 
L 292.323218 181.526214 
L 306.193938 186.082285 
L 317.723602 189.66403 
L 333.864094 194.367321 
L 347.624804 198.09293 
L 366.177871 202.705545 
L 376.800765 205.136026 
L 385.578831 207.029517 
L 395.252279 208.996363 
L 413.768173 212.413162 
L 431.133668 215.205761 
L 447.576972 217.486053 
L 465.134467 219.533634 
L 482.010897 221.128345 
L 492.288692 221.921647 
L 509.80077 222.965687 
L 523.838098 223.524747 
L 534.928367 223.792985 
L 548.986354 223.914541 
L 548.986354 223.914541 
" style="fill:none;stroke:#ff8a00;stroke-linecap:square;"/>
   </g>
   <g id="line2d_58">
    <path clip-path="url(#p6f3762076a)" d="M 157.67969 -1 
L 148.622465 51.077992 
L 139.715424 103.4573 
L 129.676342 163.875259 
L 119.932811 223.914541 
L 119.932811 223.914541 
" style="fill:none;stroke:#00ffff;stroke-linecap:square;"/>
   </g>
   <g id="line2d_59">
    <path clip-path="url(#p6f3762076a)" d="M 155.815101 -1 
L 147.192274 48.787533 
L 136.776317 110.370827 
L 127.728634 165.143418 
L 118.231753 223.914541 
L 118.231753 223.914541 
" style="fill:none;stroke:#00e0ff;stroke-linecap:square;"/>
   </g>
   <g id="line2d_60">
    <path clip-path="url(#p6f3762076a)" d="M 153.9598 -1 
L 145.022045 50.865554 
L 135.302868 108.586423 
L 125.79374 166.387903 
L 116.537385 223.914541 
L 116.537385 223.914541 
" style="fill:none;stroke:#00c2ff;stroke-linecap:square;"/>
   </g>
   <g id="line2d_61">
    <path clip-path="url(#p6f3762076a)" d="M 152.112817 -1 
L 143.362402 50.001529 
L 133.475769 108.967285 
L 123.162018 171.993708 
L 114.849631 223.914541 
L 114.849631 223.914541 
" style="fill:none;stroke:#00a3ff;stroke-linecap:square;"/>
   </g>
   <g id="line2d_62">
    <path clip-path="url(#p6f3762076a)" d="M 150.274102 -1 
L 142.285989 45.729321 
L 132.013388 107.186489 
L 122.467439 165.670494 
L 113.168412 223.914541 
L 113.168412 223.914541 
" style="fill:none;stroke:#0085ff;stroke-linecap:square;"/>
   </g>
   <g id="line2d_63">
    <path clip-path="url(#p6f3762076a)" d="M 148.444544 -1 
L 138.852496 55.476817 
L 129.785081 110.096689 
L 119.85536 171.281007 
L 111.493655 223.914541 
L 111.493655 223.914541 
" style="fill:none;stroke:#0066ff;stroke-linecap:square;"/>
   </g>
   <g id="line2d_64">
    <path clip-path="url(#p6f3762076a)" d="M 146.622627 -1 
L 137.243956 54.455854 
L 126.816386 117.61564 
L 118.330904 170.177868 
L 109.825283 223.914541 
L 109.825283 223.914541 
" style="fill:none;stroke:#0047ff;stroke-linecap:square;"/>
   </g>
   <g id="line2d_65">
    <path clip-path="url(#p6f3762076a)" d="M 144.809026 -1 
L 136.105656 50.650473 
L 125.971022 112.181965 
L 116.032544 173.971529 
L 108.163227 223.914541 
L 108.163227 223.914541 
" style="fill:none;stroke:#0029ff;stroke-linecap:square;"/>
   </g>
   <g id="line2d_66">
    <path clip-path="url(#p6f3762076a)" d="M 143.004208 -1 
L 134.58941 49.138044 
L 124.388713 111.300209 
L 114.220261 174.770281 
L 106.507413 223.914541 
L 106.507413 223.914541 
" style="fill:none;stroke:#000aff;stroke-linecap:square;"/>
   </g>
   <g id="line2d_67">
    <path clip-path="url(#p6f3762076a)" d="M 141.206742 -1 
L 131.713789 55.885571 
L 122.304068 113.56661 
L 112.84465 172.848732 
L 104.857772 223.914541 
L 104.857772 223.914541 
" style="fill:none;stroke:#1400ff;stroke-linecap:square;"/>
   </g>
   <g id="patch_3">
    <path d="M 548.986354 228.163846 
L 548.986354 7.2 
" style="fill:none;stroke:#000000;stroke-linecap:square;stroke-linejoin:miter;stroke-width:0.8;"/>
   </g>
   <g id="patch_4">
    <path d="M 7.2 223.914541 
L 559.609615 223.914541 
" style="fill:none;stroke:#000000;stroke-linecap:square;stroke-linejoin:miter;stroke-width:0.8;"/>
   </g>
  </g>
 </g>
 <defs>
  <clipPath id="p6f3762076a">
   <rect height="220.963846" width="552.409615" x="7.2" y="7.2"/>
  </clipPath>
 </defs>
</svg>
