<?xml version="1.0" encoding="utf-8" standalone="no"?>
<!DOCTYPE svg PUBLIC "-//W3C//DTD SVG 1.1//EN"
  "http://www.w3.org/Graphics/SVG/1.1/DTD/svg11.dtd">
<!-- Created with matplotlib (https://matplotlib.org/) -->
<svg height="411.869565pt" version="1.1" viewBox="0 0 568.8 411.869565" width="568.8pt" xmlns="http://www.w3.org/2000/svg" xmlns:xlink="http://www.w3.org/1999/xlink">
 <metadata>
  <rdf:RDF xmlns:cc="http://creativecommons.org/ns#" xmlns:dc="http://purl.org/dc/elements/1.1/" xmlns:rdf="http://www.w3.org/1999/02/22-rdf-syntax-ns#">
   <cc:Work>
    <dc:type rdf:resource="http://purl.org/dc/dcmitype/StillImage"/>
    <dc:date>2021-07-22T08:29:46.057952</dc:date>
    <dc:format>image/svg+xml</dc:format>
    <dc:creator>
     <cc:Agent>
      <dc:title>Matplotlib v3.3.4, https://matplotlib.org/</dc:title>
     </cc:Agent>
    </dc:creator>
   </cc:Work>
  </rdf:RDF>
 </metadata>
 <defs>
  <style type="text/css">*{stroke-linecap:butt;stroke-linejoin:round;}</style>
 </defs>
 <g id="figure_1">
  <g id="patch_1">
   <path d="M 0 411.869565 
L 568.8 411.869565 
L 568.8 0 
L 0 0 
z
" style="fill:#ffffff;"/>
  </g>
  <g id="axes_1">
   <g id="patch_2">
    <path d="M 7.2 395.457939 
L 561.6 395.457939 
L 561.6 7.2 
L 7.2 7.2 
z
" style="fill:#ffffff;"/>
   </g>
   <g id="matplotlib.axis_1">
    <g id="xtick_1">
     <g id="line2d_1">
      <defs>
       <path d="M 0 0 
L 0 3.5 
" id="m2cbdcd8ae8" style="stroke:#000000;stroke-width:0.8;"/>
      </defs>
      <g>
       <use style="stroke:#000000;stroke-width:0.8;" x="41.892577" xlink:href="#m2cbdcd8ae8" y="387.99144"/>
      </g>
     </g>
     <g id="text_1">
      <!-- −70 -->
      <g transform="translate(31.340233 402.589877)scale(0.1 -0.1)">
       <defs>
        <path d="M 10.59375 35.5 
L 73.1875 35.5 
L 73.1875 27.203125 
L 10.59375 27.203125 
z
" id="DejaVuSans-8722"/>
        <path d="M 8.203125 72.90625 
L 55.078125 72.90625 
L 55.078125 68.703125 
L 28.609375 0 
L 18.3125 0 
L 43.21875 64.59375 
L 8.203125 64.59375 
z
" id="DejaVuSans-55"/>
        <path d="M 31.78125 66.40625 
Q 24.171875 66.40625 20.328125 58.90625 
Q 16.5 51.421875 16.5 36.375 
Q 16.5 21.390625 20.328125 13.890625 
Q 24.171875 6.390625 31.78125 6.390625 
Q 39.453125 6.390625 43.28125 13.890625 
Q 47.125 21.390625 47.125 36.375 
Q 47.125 51.421875 43.28125 58.90625 
Q 39.453125 66.40625 31.78125 66.40625 
z
M 31.78125 74.21875 
Q 44.046875 74.21875 50.515625 64.515625 
Q 56.984375 54.828125 56.984375 36.375 
Q 56.984375 17.96875 50.515625 8.265625 
Q 44.046875 -1.421875 31.78125 -1.421875 
Q 19.53125 -1.421875 13.0625 8.265625 
Q 6.59375 17.96875 6.59375 36.375 
Q 6.59375 54.828125 13.0625 64.515625 
Q 19.53125 74.21875 31.78125 74.21875 
z
" id="DejaVuSans-48"/>
       </defs>
       <use xlink:href="#DejaVuSans-8722"/>
       <use x="83.789062" xlink:href="#DejaVuSans-55"/>
       <use x="147.412109" xlink:href="#DejaVuSans-48"/>
      </g>
     </g>
    </g>
    <g id="xtick_2">
     <g id="line2d_2">
      <g>
       <use style="stroke:#000000;stroke-width:0.8;" x="114.613418" xlink:href="#m2cbdcd8ae8" y="387.99144"/>
      </g>
     </g>
     <g id="text_2">
      <!-- −60 -->
      <g transform="translate(104.061074 402.589877)scale(0.1 -0.1)">
       <defs>
        <path d="M 33.015625 40.375 
Q 26.375 40.375 22.484375 35.828125 
Q 18.609375 31.296875 18.609375 23.390625 
Q 18.609375 15.53125 22.484375 10.953125 
Q 26.375 6.390625 33.015625 6.390625 
Q 39.65625 6.390625 43.53125 10.953125 
Q 47.40625 15.53125 47.40625 23.390625 
Q 47.40625 31.296875 43.53125 35.828125 
Q 39.65625 40.375 33.015625 40.375 
z
M 52.59375 71.296875 
L 52.59375 62.3125 
Q 48.875 64.0625 45.09375 64.984375 
Q 41.3125 65.921875 37.59375 65.921875 
Q 27.828125 65.921875 22.671875 59.328125 
Q 17.53125 52.734375 16.796875 39.40625 
Q 19.671875 43.65625 24.015625 45.921875 
Q 28.375 48.1875 33.59375 48.1875 
Q 44.578125 48.1875 50.953125 41.515625 
Q 57.328125 34.859375 57.328125 23.390625 
Q 57.328125 12.15625 50.6875 5.359375 
Q 44.046875 -1.421875 33.015625 -1.421875 
Q 20.359375 -1.421875 13.671875 8.265625 
Q 6.984375 17.96875 6.984375 36.375 
Q 6.984375 53.65625 15.1875 63.9375 
Q 23.390625 74.21875 37.203125 74.21875 
Q 40.921875 74.21875 44.703125 73.484375 
Q 48.484375 72.75 52.59375 71.296875 
z
" id="DejaVuSans-54"/>
       </defs>
       <use xlink:href="#DejaVuSans-8722"/>
       <use x="83.789062" xlink:href="#DejaVuSans-54"/>
       <use x="147.412109" xlink:href="#DejaVuSans-48"/>
      </g>
     </g>
    </g>
    <g id="xtick_3">
     <g id="line2d_3">
      <g>
       <use style="stroke:#000000;stroke-width:0.8;" x="187.334258" xlink:href="#m2cbdcd8ae8" y="387.99144"/>
      </g>
     </g>
     <g id="text_3">
      <!-- −50 -->
      <g transform="translate(176.781915 402.589877)scale(0.1 -0.1)">
       <defs>
        <path d="M 10.796875 72.90625 
L 49.515625 72.90625 
L 49.515625 64.59375 
L 19.828125 64.59375 
L 19.828125 46.734375 
Q 21.96875 47.46875 24.109375 47.828125 
Q 26.265625 48.1875 28.421875 48.1875 
Q 40.625 48.1875 47.75 41.5 
Q 54.890625 34.8125 54.890625 23.390625 
Q 54.890625 11.625 47.5625 5.09375 
Q 40.234375 -1.421875 26.90625 -1.421875 
Q 22.3125 -1.421875 17.546875 -0.640625 
Q 12.796875 0.140625 7.71875 1.703125 
L 7.71875 11.625 
Q 12.109375 9.234375 16.796875 8.0625 
Q 21.484375 6.890625 26.703125 6.890625 
Q 35.15625 6.890625 40.078125 11.328125 
Q 45.015625 15.765625 45.015625 23.390625 
Q 45.015625 31 40.078125 35.4375 
Q 35.15625 39.890625 26.703125 39.890625 
Q 22.75 39.890625 18.8125 39.015625 
Q 14.890625 38.140625 10.796875 36.28125 
z
" id="DejaVuSans-53"/>
       </defs>
       <use xlink:href="#DejaVuSans-8722"/>
       <use x="83.789062" xlink:href="#DejaVuSans-53"/>
       <use x="147.412109" xlink:href="#DejaVuSans-48"/>
      </g>
     </g>
    </g>
    <g id="xtick_4">
     <g id="line2d_4">
      <g>
       <use style="stroke:#000000;stroke-width:0.8;" x="260.055099" xlink:href="#m2cbdcd8ae8" y="387.99144"/>
      </g>
     </g>
     <g id="text_4">
      <!-- −40 -->
      <g transform="translate(249.502755 402.589877)scale(0.1 -0.1)">
       <defs>
        <path d="M 37.796875 64.3125 
L 12.890625 25.390625 
L 37.796875 25.390625 
z
M 35.203125 72.90625 
L 47.609375 72.90625 
L 47.609375 25.390625 
L 58.015625 25.390625 
L 58.015625 17.1875 
L 47.609375 17.1875 
L 47.609375 0 
L 37.796875 0 
L 37.796875 17.1875 
L 4.890625 17.1875 
L 4.890625 26.703125 
z
" id="DejaVuSans-52"/>
       </defs>
       <use xlink:href="#DejaVuSans-8722"/>
       <use x="83.789062" xlink:href="#DejaVuSans-52"/>
       <use x="147.412109" xlink:href="#DejaVuSans-48"/>
      </g>
     </g>
    </g>
    <g id="xtick_5">
     <g id="line2d_5">
      <g>
       <use style="stroke:#000000;stroke-width:0.8;" x="332.77594" xlink:href="#m2cbdcd8ae8" y="387.99144"/>
      </g>
     </g>
     <g id="text_5">
      <!-- −30 -->
      <g transform="translate(322.223596 402.589877)scale(0.1 -0.1)">
       <defs>
        <path d="M 40.578125 39.3125 
Q 47.65625 37.796875 51.625 33 
Q 55.609375 28.21875 55.609375 21.1875 
Q 55.609375 10.40625 48.1875 4.484375 
Q 40.765625 -1.421875 27.09375 -1.421875 
Q 22.515625 -1.421875 17.65625 -0.515625 
Q 12.796875 0.390625 7.625 2.203125 
L 7.625 11.71875 
Q 11.71875 9.328125 16.59375 8.109375 
Q 21.484375 6.890625 26.8125 6.890625 
Q 36.078125 6.890625 40.9375 10.546875 
Q 45.796875 14.203125 45.796875 21.1875 
Q 45.796875 27.640625 41.28125 31.265625 
Q 36.765625 34.90625 28.71875 34.90625 
L 20.21875 34.90625 
L 20.21875 43.015625 
L 29.109375 43.015625 
Q 36.375 43.015625 40.234375 45.921875 
Q 44.09375 48.828125 44.09375 54.296875 
Q 44.09375 59.90625 40.109375 62.90625 
Q 36.140625 65.921875 28.71875 65.921875 
Q 24.65625 65.921875 20.015625 65.03125 
Q 15.375 64.15625 9.8125 62.3125 
L 9.8125 71.09375 
Q 15.4375 72.65625 20.34375 73.4375 
Q 25.25 74.21875 29.59375 74.21875 
Q 40.828125 74.21875 47.359375 69.109375 
Q 53.90625 64.015625 53.90625 55.328125 
Q 53.90625 49.265625 50.4375 45.09375 
Q 46.96875 40.921875 40.578125 39.3125 
z
" id="DejaVuSans-51"/>
       </defs>
       <use xlink:href="#DejaVuSans-8722"/>
       <use x="83.789062" xlink:href="#DejaVuSans-51"/>
       <use x="147.412109" xlink:href="#DejaVuSans-48"/>
      </g>
     </g>
    </g>
    <g id="xtick_6">
     <g id="line2d_6">
      <g>
       <use style="stroke:#000000;stroke-width:0.8;" x="405.49678" xlink:href="#m2cbdcd8ae8" y="387.99144"/>
      </g>
     </g>
     <g id="text_6">
      <!-- −20 -->
      <g transform="translate(394.944437 402.589877)scale(0.1 -0.1)">
       <defs>
        <path d="M 19.1875 8.296875 
L 53.609375 8.296875 
L 53.609375 0 
L 7.328125 0 
L 7.328125 8.296875 
Q 12.9375 14.109375 22.625 23.890625 
Q 32.328125 33.6875 34.8125 36.53125 
Q 39.546875 41.84375 41.421875 45.53125 
Q 43.3125 49.21875 43.3125 52.78125 
Q 43.3125 58.59375 39.234375 62.25 
Q 35.15625 65.921875 28.609375 65.921875 
Q 23.96875 65.921875 18.8125 64.3125 
Q 13.671875 62.703125 7.8125 59.421875 
L 7.8125 69.390625 
Q 13.765625 71.78125 18.9375 73 
Q 24.125 74.21875 28.421875 74.21875 
Q 39.75 74.21875 46.484375 68.546875 
Q 53.21875 62.890625 53.21875 53.421875 
Q 53.21875 48.921875 51.53125 44.890625 
Q 49.859375 40.875 45.40625 35.40625 
Q 44.1875 33.984375 37.640625 27.21875 
Q 31.109375 20.453125 19.1875 8.296875 
z
" id="DejaVuSans-50"/>
       </defs>
       <use xlink:href="#DejaVuSans-8722"/>
       <use x="83.789062" xlink:href="#DejaVuSans-50"/>
       <use x="147.412109" xlink:href="#DejaVuSans-48"/>
      </g>
     </g>
    </g>
    <g id="xtick_7">
     <g id="line2d_7">
      <g>
       <use style="stroke:#000000;stroke-width:0.8;" x="478.217621" xlink:href="#m2cbdcd8ae8" y="387.99144"/>
      </g>
     </g>
     <g id="text_7">
      <!-- −10 -->
      <g transform="translate(467.665277 402.589877)scale(0.1 -0.1)">
       <defs>
        <path d="M 12.40625 8.296875 
L 28.515625 8.296875 
L 28.515625 63.921875 
L 10.984375 60.40625 
L 10.984375 69.390625 
L 28.421875 72.90625 
L 38.28125 72.90625 
L 38.28125 8.296875 
L 54.390625 8.296875 
L 54.390625 0 
L 12.40625 0 
z
" id="DejaVuSans-49"/>
       </defs>
       <use xlink:href="#DejaVuSans-8722"/>
       <use x="83.789062" xlink:href="#DejaVuSans-49"/>
       <use x="147.412109" xlink:href="#DejaVuSans-48"/>
      </g>
     </g>
    </g>
    <g id="xtick_8">
     <g id="line2d_8">
      <g>
       <use style="stroke:#000000;stroke-width:0.8;" x="550.938462" xlink:href="#m2cbdcd8ae8" y="387.99144"/>
      </g>
     </g>
    </g>
    <g id="xtick_9">
     <g id="line2d_9">
      <defs>
       <path d="M 0 0 
L 0 2 
" id="mb7ee290bb2" style="stroke:#000000;stroke-width:0.6;"/>
      </defs>
      <g>
       <use style="stroke:#000000;stroke-width:0.6;" x="12.804241" xlink:href="#mb7ee290bb2" y="387.99144"/>
      </g>
     </g>
    </g>
    <g id="xtick_10">
     <g id="line2d_10">
      <g>
       <use style="stroke:#000000;stroke-width:0.6;" x="27.348409" xlink:href="#mb7ee290bb2" y="387.99144"/>
      </g>
     </g>
    </g>
    <g id="xtick_11">
     <g id="line2d_11">
      <g>
       <use style="stroke:#000000;stroke-width:0.6;" x="56.436745" xlink:href="#mb7ee290bb2" y="387.99144"/>
      </g>
     </g>
    </g>
    <g id="xtick_12">
     <g id="line2d_12">
      <g>
       <use style="stroke:#000000;stroke-width:0.6;" x="70.980913" xlink:href="#mb7ee290bb2" y="387.99144"/>
      </g>
     </g>
    </g>
    <g id="xtick_13">
     <g id="line2d_13">
      <g>
       <use style="stroke:#000000;stroke-width:0.6;" x="85.525082" xlink:href="#mb7ee290bb2" y="387.99144"/>
      </g>
     </g>
    </g>
    <g id="xtick_14">
     <g id="line2d_14">
      <g>
       <use style="stroke:#000000;stroke-width:0.6;" x="100.06925" xlink:href="#mb7ee290bb2" y="387.99144"/>
      </g>
     </g>
    </g>
    <g id="xtick_15">
     <g id="line2d_15">
      <g>
       <use style="stroke:#000000;stroke-width:0.6;" x="129.157586" xlink:href="#mb7ee290bb2" y="387.99144"/>
      </g>
     </g>
    </g>
    <g id="xtick_16">
     <g id="line2d_16">
      <g>
       <use style="stroke:#000000;stroke-width:0.6;" x="143.701754" xlink:href="#mb7ee290bb2" y="387.99144"/>
      </g>
     </g>
    </g>
    <g id="xtick_17">
     <g id="line2d_17">
      <g>
       <use style="stroke:#000000;stroke-width:0.6;" x="158.245922" xlink:href="#mb7ee290bb2" y="387.99144"/>
      </g>
     </g>
    </g>
    <g id="xtick_18">
     <g id="line2d_18">
      <g>
       <use style="stroke:#000000;stroke-width:0.6;" x="172.79009" xlink:href="#mb7ee290bb2" y="387.99144"/>
      </g>
     </g>
    </g>
    <g id="xtick_19">
     <g id="line2d_19">
      <g>
       <use style="stroke:#000000;stroke-width:0.6;" x="201.878427" xlink:href="#mb7ee290bb2" y="387.99144"/>
      </g>
     </g>
    </g>
    <g id="xtick_20">
     <g id="line2d_20">
      <g>
       <use style="stroke:#000000;stroke-width:0.6;" x="216.422595" xlink:href="#mb7ee290bb2" y="387.99144"/>
      </g>
     </g>
    </g>
    <g id="xtick_21">
     <g id="line2d_21">
      <g>
       <use style="stroke:#000000;stroke-width:0.6;" x="230.966763" xlink:href="#mb7ee290bb2" y="387.99144"/>
      </g>
     </g>
    </g>
    <g id="xtick_22">
     <g id="line2d_22">
      <g>
       <use style="stroke:#000000;stroke-width:0.6;" x="245.510931" xlink:href="#mb7ee290bb2" y="387.99144"/>
      </g>
     </g>
    </g>
    <g id="xtick_23">
     <g id="line2d_23">
      <g>
       <use style="stroke:#000000;stroke-width:0.6;" x="274.599267" xlink:href="#mb7ee290bb2" y="387.99144"/>
      </g>
     </g>
    </g>
    <g id="xtick_24">
     <g id="line2d_24">
      <g>
       <use style="stroke:#000000;stroke-width:0.6;" x="289.143435" xlink:href="#mb7ee290bb2" y="387.99144"/>
      </g>
     </g>
    </g>
    <g id="xtick_25">
     <g id="line2d_25">
      <g>
       <use style="stroke:#000000;stroke-width:0.6;" x="303.687603" xlink:href="#mb7ee290bb2" y="387.99144"/>
      </g>
     </g>
    </g>
    <g id="xtick_26">
     <g id="line2d_26">
      <g>
       <use style="stroke:#000000;stroke-width:0.6;" x="318.231772" xlink:href="#mb7ee290bb2" y="387.99144"/>
      </g>
     </g>
    </g>
    <g id="xtick_27">
     <g id="line2d_27">
      <g>
       <use style="stroke:#000000;stroke-width:0.6;" x="347.320108" xlink:href="#mb7ee290bb2" y="387.99144"/>
      </g>
     </g>
    </g>
    <g id="xtick_28">
     <g id="line2d_28">
      <g>
       <use style="stroke:#000000;stroke-width:0.6;" x="361.864276" xlink:href="#mb7ee290bb2" y="387.99144"/>
      </g>
     </g>
    </g>
    <g id="xtick_29">
     <g id="line2d_29">
      <g>
       <use style="stroke:#000000;stroke-width:0.6;" x="376.408444" xlink:href="#mb7ee290bb2" y="387.99144"/>
      </g>
     </g>
    </g>
    <g id="xtick_30">
     <g id="line2d_30">
      <g>
       <use style="stroke:#000000;stroke-width:0.6;" x="390.952612" xlink:href="#mb7ee290bb2" y="387.99144"/>
      </g>
     </g>
    </g>
    <g id="xtick_31">
     <g id="line2d_31">
      <g>
       <use style="stroke:#000000;stroke-width:0.6;" x="420.040948" xlink:href="#mb7ee290bb2" y="387.99144"/>
      </g>
     </g>
    </g>
    <g id="xtick_32">
     <g id="line2d_32">
      <g>
       <use style="stroke:#000000;stroke-width:0.6;" x="434.585117" xlink:href="#mb7ee290bb2" y="387.99144"/>
      </g>
     </g>
    </g>
    <g id="xtick_33">
     <g id="line2d_33">
      <g>
       <use style="stroke:#000000;stroke-width:0.6;" x="449.129285" xlink:href="#mb7ee290bb2" y="387.99144"/>
      </g>
     </g>
    </g>
    <g id="xtick_34">
     <g id="line2d_34">
      <g>
       <use style="stroke:#000000;stroke-width:0.6;" x="463.673453" xlink:href="#mb7ee290bb2" y="387.99144"/>
      </g>
     </g>
    </g>
    <g id="xtick_35">
     <g id="line2d_35">
      <g>
       <use style="stroke:#000000;stroke-width:0.6;" x="492.761789" xlink:href="#mb7ee290bb2" y="387.99144"/>
      </g>
     </g>
    </g>
    <g id="xtick_36">
     <g id="line2d_36">
      <g>
       <use style="stroke:#000000;stroke-width:0.6;" x="507.305957" xlink:href="#mb7ee290bb2" y="387.99144"/>
      </g>
     </g>
    </g>
    <g id="xtick_37">
     <g id="line2d_37">
      <g>
       <use style="stroke:#000000;stroke-width:0.6;" x="521.850125" xlink:href="#mb7ee290bb2" y="387.99144"/>
      </g>
     </g>
    </g>
    <g id="xtick_38">
     <g id="line2d_38">
      <g>
       <use style="stroke:#000000;stroke-width:0.6;" x="536.394293" xlink:href="#mb7ee290bb2" y="387.99144"/>
      </g>
     </g>
    </g>
   </g>
   <g id="matplotlib.axis_2">
    <g id="ytick_1">
     <g id="line2d_39">
      <defs>
       <path d="M 0 0 
L -3.5 0 
" id="m4f69edd8c5" style="stroke:#000000;stroke-width:0.8;"/>
      </defs>
      <g>
       <use style="stroke:#000000;stroke-width:0.8;" x="550.938462" xlink:href="#m4f69edd8c5" y="387.99144"/>
      </g>
     </g>
    </g>
    <g id="ytick_2">
     <g id="line2d_40">
      <g>
       <use style="stroke:#000000;stroke-width:0.8;" x="550.938462" xlink:href="#m4f69edd8c5" y="297.090389"/>
      </g>
     </g>
     <g id="text_8">
      <!-- 50 -->
      <g transform="translate(531.213462 300.889608)scale(0.1 -0.1)">
       <use xlink:href="#DejaVuSans-53"/>
       <use x="63.623047" xlink:href="#DejaVuSans-48"/>
      </g>
     </g>
    </g>
    <g id="ytick_3">
     <g id="line2d_41">
      <g>
       <use style="stroke:#000000;stroke-width:0.8;" x="550.938462" xlink:href="#m4f69edd8c5" y="206.189338"/>
      </g>
     </g>
     <g id="text_9">
      <!-- 100 -->
      <g transform="translate(524.850962 209.988557)scale(0.1 -0.1)">
       <use xlink:href="#DejaVuSans-49"/>
       <use x="63.623047" xlink:href="#DejaVuSans-48"/>
       <use x="127.246094" xlink:href="#DejaVuSans-48"/>
      </g>
     </g>
    </g>
    <g id="ytick_4">
     <g id="line2d_42">
      <g>
       <use style="stroke:#000000;stroke-width:0.8;" x="550.938462" xlink:href="#m4f69edd8c5" y="115.288288"/>
      </g>
     </g>
     <g id="text_10">
      <!-- 150 -->
      <g transform="translate(524.850962 119.087506)scale(0.1 -0.1)">
       <use xlink:href="#DejaVuSans-49"/>
       <use x="63.623047" xlink:href="#DejaVuSans-53"/>
       <use x="127.246094" xlink:href="#DejaVuSans-48"/>
      </g>
     </g>
    </g>
    <g id="ytick_5">
     <g id="line2d_43">
      <g>
       <use style="stroke:#000000;stroke-width:0.8;" x="550.938462" xlink:href="#m4f69edd8c5" y="24.387237"/>
      </g>
     </g>
     <g id="text_11">
      <!-- 200 -->
      <g transform="translate(524.850962 28.186456)scale(0.1 -0.1)">
       <use xlink:href="#DejaVuSans-50"/>
       <use x="63.623047" xlink:href="#DejaVuSans-48"/>
       <use x="127.246094" xlink:href="#DejaVuSans-48"/>
      </g>
     </g>
    </g>
    <g id="ytick_6">
     <g id="line2d_44">
      <defs>
       <path d="M 0 0 
L -2 0 
" id="m61340914f9" style="stroke:#000000;stroke-width:0.6;"/>
      </defs>
      <g>
       <use style="stroke:#000000;stroke-width:0.6;" x="550.938462" xlink:href="#m61340914f9" y="369.81123"/>
      </g>
     </g>
    </g>
    <g id="ytick_7">
     <g id="line2d_45">
      <g>
       <use style="stroke:#000000;stroke-width:0.6;" x="550.938462" xlink:href="#m61340914f9" y="351.63102"/>
      </g>
     </g>
    </g>
    <g id="ytick_8">
     <g id="line2d_46">
      <g>
       <use style="stroke:#000000;stroke-width:0.6;" x="550.938462" xlink:href="#m61340914f9" y="333.450809"/>
      </g>
     </g>
    </g>
    <g id="ytick_9">
     <g id="line2d_47">
      <g>
       <use style="stroke:#000000;stroke-width:0.6;" x="550.938462" xlink:href="#m61340914f9" y="315.270599"/>
      </g>
     </g>
    </g>
    <g id="ytick_10">
     <g id="line2d_48">
      <g>
       <use style="stroke:#000000;stroke-width:0.6;" x="550.938462" xlink:href="#m61340914f9" y="278.910179"/>
      </g>
     </g>
    </g>
    <g id="ytick_11">
     <g id="line2d_49">
      <g>
       <use style="stroke:#000000;stroke-width:0.6;" x="550.938462" xlink:href="#m61340914f9" y="260.729969"/>
      </g>
     </g>
    </g>
    <g id="ytick_12">
     <g id="line2d_50">
      <g>
       <use style="stroke:#000000;stroke-width:0.6;" x="550.938462" xlink:href="#m61340914f9" y="242.549759"/>
      </g>
     </g>
    </g>
    <g id="ytick_13">
     <g id="line2d_51">
      <g>
       <use style="stroke:#000000;stroke-width:0.6;" x="550.938462" xlink:href="#m61340914f9" y="224.369549"/>
      </g>
     </g>
    </g>
    <g id="ytick_14">
     <g id="line2d_52">
      <g>
       <use style="stroke:#000000;stroke-width:0.6;" x="550.938462" xlink:href="#m61340914f9" y="188.009128"/>
      </g>
     </g>
    </g>
    <g id="ytick_15">
     <g id="line2d_53">
      <g>
       <use style="stroke:#000000;stroke-width:0.6;" x="550.938462" xlink:href="#m61340914f9" y="169.828918"/>
      </g>
     </g>
    </g>
    <g id="ytick_16">
     <g id="line2d_54">
      <g>
       <use style="stroke:#000000;stroke-width:0.6;" x="550.938462" xlink:href="#m61340914f9" y="151.648708"/>
      </g>
     </g>
    </g>
    <g id="ytick_17">
     <g id="line2d_55">
      <g>
       <use style="stroke:#000000;stroke-width:0.6;" x="550.938462" xlink:href="#m61340914f9" y="133.468498"/>
      </g>
     </g>
    </g>
    <g id="ytick_18">
     <g id="line2d_56">
      <g>
       <use style="stroke:#000000;stroke-width:0.6;" x="550.938462" xlink:href="#m61340914f9" y="97.108077"/>
      </g>
     </g>
    </g>
    <g id="ytick_19">
     <g id="line2d_57">
      <g>
       <use style="stroke:#000000;stroke-width:0.6;" x="550.938462" xlink:href="#m61340914f9" y="78.927867"/>
      </g>
     </g>
    </g>
    <g id="ytick_20">
     <g id="line2d_58">
      <g>
       <use style="stroke:#000000;stroke-width:0.6;" x="550.938462" xlink:href="#m61340914f9" y="60.747657"/>
      </g>
     </g>
    </g>
    <g id="ytick_21">
     <g id="line2d_59">
      <g>
       <use style="stroke:#000000;stroke-width:0.6;" x="550.938462" xlink:href="#m61340914f9" y="42.567447"/>
      </g>
     </g>
    </g>
   </g>
   <g id="line2d_60">
    <path clip-path="url(#pd40cc73c0d)" d="M 23.227277 14.666499 
L 33.087878 30.63802 
L 43.73813 47.394503 
L 54.750872 64.19067 
L 65.445798 79.994497 
L 75.837896 94.879766 
L 83.254629 105.223541 
L 91.852579 116.927185 
L 102.504814 131.004948 
L 112.863872 144.254066 
L 123.865142 157.856224 
L 131.899068 167.489414 
L 141.029836 178.134779 
L 150.114702 188.41108 
L 159.822945 199.049713 
L 169.682123 209.49671 
L 179.48222 219.530025 
L 188.574764 228.53063 
L 196.844386 236.462605 
L 206.748458 245.648387 
L 216.484959 254.350119 
L 226.341608 262.832474 
L 236.148013 270.950367 
L 245.53595 278.426228 
L 256.107267 286.5037 
L 264.86808 292.928385 
L 273.359454 298.925867 
L 281.303642 304.334931 
L 291.354681 310.902669 
L 301.137705 317.003669 
L 308.706637 321.529362 
L 318.441336 327.104092 
L 328.389781 332.519427 
L 338.031752 337.500302 
L 346.774303 341.792223 
L 356.734472 346.425795 
L 364.665402 349.923011 
L 375.695006 354.507479 
L 385.614093 358.357243 
L 393.916125 361.383652 
L 404.471526 364.977859 
L 413.679611 367.88485 
L 423.417325 370.731086 
L 432.834745 373.264172 
L 443.806423 375.947446 
L 452.148384 377.797617 
L 463.018238 379.966187 
L 474.357039 381.940946 
L 485.376975 383.583997 
L 495.185271 384.821362 
L 506.425668 385.983261 
L 516.38675 386.788108 
L 525.650933 387.350166 
L 535.939901 387.767117 
L 546.797051 387.974439 
L 550.938462 387.99144 
L 550.938462 387.99144 
" style="fill:none;stroke:#ff0000;stroke-linecap:square;"/>
   </g>
   <g id="line2d_61">
    <path clip-path="url(#pd40cc73c0d)" d="M 22.581401 18.134808 
L 32.560939 34.123481 
L 43.468378 51.090069 
L 54.184934 67.250848 
L 65.037808 83.111866 
L 74.395989 96.386765 
L 83.804526 109.363919 
L 94.04343 123.072157 
L 104.371622 136.46938 
L 114.114503 148.717277 
L 122.978885 159.53675 
L 133.623256 172.12705 
L 144.377617 184.409258 
L 154.263258 195.317159 
L 164.262083 205.983508 
L 174.650149 216.680924 
L 183.212419 225.208296 
L 191.82377 233.524145 
L 201.908076 242.93516 
L 211.334482 251.417659 
L 222.150886 260.782433 
L 232.654689 269.505677 
L 241.380814 276.479045 
L 250.84442 283.765359 
L 259.066762 289.865716 
L 269.805506 297.515424 
L 278.18633 303.239095 
L 287.265376 309.199477 
L 297.27305 315.484306 
L 307.907355 321.840016 
L 318.144919 327.64963 
L 328.546121 333.246786 
L 338.096965 338.119613 
L 347.227231 342.542772 
L 355.598537 346.399192 
L 364.607499 350.339596 
L 373.194062 353.895615 
L 384.074544 358.125966 
L 394.440295 361.874075 
L 404.350129 365.204187 
L 414.206513 368.274799 
L 422.889696 370.783346 
L 431.340147 373.050395 
L 439.689886 375.12388 
L 450.003665 377.459854 
L 460.593221 379.603307 
L 471.361885 381.52255 
L 481.675736 383.118655 
L 490.538776 384.304051 
L 500.797732 385.464637 
L 512.718973 386.532937 
L 521.42478 387.125865 
L 532.033509 387.638355 
L 543.064184 387.930553 
L 550.938462 387.99144 
L 550.938462 387.99144 
" style="fill:none;stroke:#ff0f00;stroke-linecap:square;"/>
   </g>
   <g id="line2d_62">
    <path clip-path="url(#pd40cc73c0d)" d="M 21.948842 21.540187 
L 32.6742 38.524268 
L 41.47949 52.088433 
L 51.536905 67.169375 
L 62.80399 83.550523 
L 71.520803 95.857259 
L 80.732743 108.520763 
L 89.466571 120.206711 
L 98.023153 131.357342 
L 109.000456 145.236785 
L 118.7147 157.126204 
L 126.75601 166.693081 
L 137.188402 178.738901 
L 144.871928 187.350157 
L 153.12204 196.353707 
L 162.894278 206.697579 
L 172.480517 216.511395 
L 181.06867 225.027278 
L 191.657119 235.172758 
L 200.589996 243.432471 
L 210.779893 252.525035 
L 221.573473 261.779321 
L 232.285691 270.586754 
L 239.73424 276.492766 
L 250.987785 285.08169 
L 260.31158 291.89768 
L 268.378632 297.578784 
L 279.748421 305.250392 
L 289.475192 311.506707 
L 297.465557 316.437792 
L 307.678825 322.471049 
L 316.403778 327.388852 
L 325.195647 332.12736 
L 336.126816 337.719608 
L 346.131376 342.551607 
L 355.583072 346.869307 
L 365.866037 351.298137 
L 373.542705 354.424587 
L 383.750014 358.347074 
L 392.649602 361.551574 
L 402.67111 364.923485 
L 413.053152 368.15652 
L 421.364837 370.556888 
L 431.189574 373.181938 
L 440.991761 375.575161 
L 450.77721 377.742845 
L 462.359715 380.027403 
L 473.094093 381.877131 
L 484.551929 383.572651 
L 495.449581 384.922806 
L 505.449052 385.940452 
L 514.221639 386.661663 
L 526.7918 387.420266 
L 537.199242 387.807573 
L 546.772517 387.974624 
L 550.938462 387.99144 
L 550.938462 387.99144 
" style="fill:none;stroke:#ff1f00;stroke-linecap:square;"/>
   </g>
   <g id="line2d_63">
    <path clip-path="url(#pd40cc73c0d)" d="M 21.329192 24.8843 
L 29.673422 38.003037 
L 37.834596 50.539575 
L 48.457063 66.427036 
L 58.273728 80.683413 
L 66.164437 91.850593 
L 77.189168 107.023538 
L 86.817091 119.870554 
L 98.027654 134.363096 
L 108.699495 147.700726 
L 117.262933 158.085001 
L 125.981424 168.370391 
L 135.923307 179.750775 
L 144.425177 189.192577 
L 154.553666 200.096773 
L 166.04473 212.022008 
L 175.544796 221.528877 
L 184.464967 230.169793 
L 195.393646 240.384983 
L 204.003536 248.149034 
L 214.612755 257.37748 
L 224.760203 265.8599 
L 234.243811 273.487814 
L 243.730629 280.833089 
L 254.335211 288.71133 
L 263.730601 295.402528 
L 272.728882 301.560443 
L 282.870641 308.2115 
L 293.300965 314.73684 
L 303.030541 320.54042 
L 312.92654 326.167097 
L 321.447702 330.792189 
L 331.668962 336.075669 
L 341.308661 340.798233 
L 350.532872 345.084272 
L 360.82978 349.603727 
L 370.438403 353.572767 
L 379.193198 356.983535 
L 388.774536 360.494962 
L 399.656913 364.206931 
L 409.828425 367.415041 
L 420.351236 370.472582 
L 430.680937 373.219714 
L 440.917096 375.697523 
L 450.47285 377.794523 
L 459.696259 379.62372 
L 469.209865 381.312935 
L 480.720448 383.092869 
L 490.662234 384.401509 
L 501.362619 385.577208 
L 512.484397 386.547755 
L 523.798945 387.276778 
L 533.698183 387.704604 
L 545.756983 387.965701 
L 550.938462 387.99144 
L 550.938462 387.99144 
" style="fill:none;stroke:#ff2e00;stroke-linecap:square;"/>
   </g>
   <g id="line2d_64">
    <path clip-path="url(#pd40cc73c0d)" d="M 20.722061 28.168759 
L 30.236869 42.948735 
L 37.085251 53.344935 
L 47.271772 68.439277 
L 55.974276 80.989421 
L 65.686669 94.625951 
L 74.656618 106.878306 
L 85.974166 121.876348 
L 95.813919 134.50457 
L 106.15457 147.369938 
L 114.176409 157.068156 
L 122.863964 167.297012 
L 133.520306 179.460101 
L 141.374738 188.158183 
L 151.091478 198.609738 
L 161.678267 209.613953 
L 170.924591 218.902937 
L 181.565451 229.227277 
L 192.097206 239.066566 
L 201.612337 247.636856 
L 211.656372 256.359891 
L 220.081804 263.424562 
L 230.297876 271.686084 
L 240.648055 279.720724 
L 250.570692 287.111588 
L 260.20595 294.000765 
L 270.253908 300.887784 
L 280.139502 307.371913 
L 289.70834 313.377027 
L 299.365136 319.170914 
L 308.226665 324.255611 
L 316.34534 328.721835 
L 327.7583 334.69407 
L 337.493557 339.50987 
L 346.320073 343.657972 
L 357.345876 348.552683 
L 366.484324 352.371618 
L 376.648908 356.370067 
L 386.801276 360.105672 
L 398.399566 364.063001 
L 407.622575 366.977514 
L 419.690984 370.485639 
L 430.59686 373.362942 
L 440.243571 375.680264 
L 449.66774 377.740921 
L 461.163663 379.987064 
L 472.269545 381.882521 
L 484.129116 383.614233 
L 493.687008 384.793909 
L 504.474232 385.897764 
L 515.345328 386.770148 
L 526.307213 387.410062 
L 536.59663 387.795439 
L 546.613638 387.973714 
L 550.938462 387.99144 
L 550.938462 387.99144 
" style="fill:none;stroke:#ff3d00;stroke-linecap:square;"/>
   </g>
   <g id="line2d_65">
    <path clip-path="url(#pd40cc73c0d)" d="M 20.127072 31.395118 
L 31.187812 48.363783 
L 38.695205 59.584451 
L 47.285008 72.132755 
L 57.913789 87.236962 
L 68.453478 101.759964 
L 79.613719 116.652836 
L 88.473918 128.126611 
L 98.867154 141.197244 
L 109.050113 153.602934 
L 118.044023 164.235387 
L 129.508837 177.354391 
L 138.967844 187.8172 
L 150.34527 199.976839 
L 158.835175 208.752503 
L 169.025585 218.954887 
L 177.509882 227.177501 
L 187.862022 236.881029 
L 198.790247 246.737838 
L 208.870242 255.483147 
L 218.045838 263.159276 
L 228.481282 271.564857 
L 238.362865 279.210814 
L 247.512977 286.023011 
L 256.915313 292.758705 
L 266.45984 299.326269 
L 276.430975 305.901206 
L 285.261329 311.483347 
L 295.562297 317.713896 
L 304.551797 322.907337 
L 315.484633 328.922 
L 326.251723 334.527225 
L 336.987436 339.806978 
L 346.94113 344.430881 
L 355.967511 348.401842 
L 365.930234 352.543104 
L 375.130124 356.145433 
L 384.669753 359.659214 
L 394.548683 363.063764 
L 403.227148 365.860875 
L 414.683151 369.280112 
L 422.602283 371.464732 
L 432.369368 373.96073 
L 442.135906 376.240638 
L 451.130337 378.152169 
L 462.441781 380.304106 
L 472.101781 381.923114 
L 482.643092 383.463727 
L 492.865078 384.735958 
L 501.342193 385.62801 
L 512.350208 386.569305 
L 521.697823 387.179005 
L 530.890242 387.611434 
L 541.344433 387.904909 
L 550.938462 387.99144 
L 550.938462 387.99144 
" style="fill:none;stroke:#ff4d00;stroke-linecap:square;"/>
   </g>
   <g id="line2d_66">
    <path clip-path="url(#pd40cc73c0d)" d="M 19.543866 34.56488 
L 30.177905 50.723024 
L 40.310332 65.676807 
L 50.956578 80.931561 
L 58.700116 91.737022 
L 67.637473 103.908959 
L 75.888144 114.864552 
L 86.369012 128.397847 
L 94.089336 138.095769 
L 105.118481 151.557489 
L 114.396608 162.529446 
L 123.478898 172.962521 
L 133.598 184.233807 
L 142.304386 193.638193 
L 152.041229 203.838992 
L 160.81544 212.748904 
L 169.435191 221.244939 
L 178.114088 229.545357 
L 187.730352 238.448846 
L 196.776658 246.547021 
L 205.213837 253.860748 
L 215.017543 262.073187 
L 222.626308 268.237996 
L 233.422299 276.676356 
L 243.306543 284.089021 
L 251.462455 289.983545 
L 260.441485 296.244082 
L 270.640428 303.068327 
L 280.132012 309.149234 
L 289.045023 314.625964 
L 299.919136 321.006082 
L 309.337107 326.267983 
L 320.392578 332.137343 
L 329.043859 336.502255 
L 338.270869 340.940293 
L 348.75493 345.714688 
L 359.972627 350.512239 
L 369.040894 354.159332 
L 378.811096 357.861042 
L 388.438938 361.281214 
L 399.099413 364.808778 
L 408.993995 367.842799 
L 419.104177 370.707993 
L 428.64405 373.19719 
L 437.943439 375.426338 
L 449.831685 377.996979 
L 459.63486 379.885001 
L 471.087128 381.829964 
L 481.161917 383.312594 
L 492.392535 384.717716 
L 503.746631 385.877528 
L 513.385234 386.659871 
L 522.797561 387.247533 
L 534.2674 387.731986 
L 546.083799 387.969579 
L 550.938462 387.99144 
L 550.938462 387.99144 
" style="fill:none;stroke:#ff5c00;stroke-linecap:square;"/>
   </g>
   <g id="line2d_67">
    <path clip-path="url(#pd40cc73c0d)" d="M 18.972094 37.679496 
L 26.62369 49.236859 
L 36.068348 63.166017 
L 46.844252 78.610886 
L 58.022898 94.136945 
L 66.633808 105.75765 
L 75.471784 117.382505 
L 85.05363 129.644638 
L 94.833074 141.798956 
L 104.713398 153.714185 
L 113.864809 164.428419 
L 124.59182 176.599168 
L 132.084298 184.855056 
L 141.362815 194.803634 
L 150.558969 204.367305 
L 161.046679 214.919119 
L 169.981157 223.614167 
L 179.990611 233.038934 
L 190.630966 242.696636 
L 200.178278 251.050387 
L 208.806212 258.349731 
L 219.370531 266.968865 
L 230.261783 275.493432 
L 239.846742 282.696957 
L 250.319262 290.25303 
L 258.805329 296.138515 
L 266.293448 301.157829 
L 277.182446 308.169634 
L 288.369131 315.024188 
L 298.953084 321.189333 
L 309.046509 326.783594 
L 317.573527 331.296021 
L 325.143901 335.140445 
L 336.271918 340.519236 
L 345.766569 344.856043 
L 355.352226 349.002277 
L 364.018102 352.552809 
L 374.931995 356.761129 
L 385.146594 360.438054 
L 395.403177 363.879608 
L 405.604751 367.057709 
L 415.176661 369.82096 
L 425.60923 372.595343 
L 434.839871 374.846856 
L 445.191265 377.148344 
L 454.50762 379.020838 
L 466.020135 381.078753 
L 476.141948 382.658126 
L 487.412278 384.167933 
L 498.949567 385.446712 
L 509.508332 386.384672 
L 520.969577 387.155926 
L 532.996768 387.693929 
L 543.037841 387.934063 
L 550.938462 387.99144 
L 550.938462 387.99144 
" style="fill:none;stroke:#ff6b00;stroke-linecap:square;"/>
   </g>
   <g id="line2d_68">
    <path clip-path="url(#pd40cc73c0d)" d="M 18.411425 40.740371 
L 28.727343 56.110221 
L 37.204314 68.412708 
L 47.349828 82.754093 
L 56.987735 95.997392 
L 66.74915 109.038185 
L 77.068841 122.423674 
L 87.133676 135.087589 
L 97.344683 147.547037 
L 105.562737 157.294724 
L 115.314113 168.541896 
L 124.239846 178.537248 
L 134.145258 189.299442 
L 143.645595 199.299861 
L 151.980468 207.817794 
L 161.956533 217.703262 
L 172.054442 227.3708 
L 182.914112 237.393412 
L 192.308471 245.755666 
L 202.982261 254.915558 
L 213.564479 263.644169 
L 223.682703 271.66693 
L 234.097503 279.600203 
L 243.53098 286.506098 
L 254.475467 294.190055 
L 264.332275 300.813433 
L 273.992005 307.035635 
L 282.206461 312.120568 
L 292.908802 318.465267 
L 304.099579 324.765598 
L 314.877055 330.51598 
L 325.522935 335.895678 
L 336.18027 340.987018 
L 346.26895 345.539929 
L 357.322743 350.235423 
L 368.032749 354.497514 
L 378.188426 358.282088 
L 386.212229 361.098011 
L 397.11997 364.683174 
L 407.077581 367.715369 
L 416.086394 370.263804 
L 427.403314 373.207009 
L 437.938 375.692601 
L 449.42212 378.127877 
L 460.666815 380.239949 
L 471.807943 382.071451 
L 483.425623 383.709428 
L 493.650534 384.925393 
L 503.072226 385.861917 
L 515.275642 386.817154 
L 526.142987 387.427119 
L 538.32427 387.846351 
L 550.938462 387.99144 
L 550.938462 387.99144 
" style="fill:none;stroke:#ff7a00;stroke-linecap:square;"/>
   </g>
   <g id="line2d_69">
    <path clip-path="url(#pd40cc73c0d)" d="M 17.861538 43.748863 
L 27.649908 58.199684 
L 37.598469 72.488012 
L 48.022038 87.03372 
L 59.210176 102.170412 
L 69.607665 115.802864 
L 76.708134 124.875466 
L 87.397673 138.17642 
L 95.209397 147.628323 
L 104.943426 159.093787 
L 114.22621 169.709313 
L 123.451105 179.955114 
L 134.208118 191.526173 
L 144.912994 202.645118 
L 155.939926 213.692351 
L 164.110366 221.616005 
L 175.632202 232.417029 
L 184.392379 240.341481 
L 194.235005 248.953215 
L 203.247494 256.571548 
L 213.234248 264.719626 
L 221.851366 271.505506 
L 229.903423 277.644309 
L 239.017956 284.360658 
L 250.628138 292.563773 
L 262.407385 300.489746 
L 271.18472 306.140361 
L 282.341394 313.013006 
L 290.295163 317.703973 
L 300.373595 323.402301 
L 310.428856 328.817762 
L 319.893707 333.672814 
L 330.600562 338.885978 
L 341.254759 343.784202 
L 352.942438 348.831295 
L 361.546265 352.332041 
L 371.437811 356.135326 
L 381.879135 359.89692 
L 391.855323 363.251952 
L 403.501928 366.878196 
L 413.869995 369.847398 
L 423.546659 372.402167 
L 434.232648 374.984511 
L 443.788341 377.084675 
L 452.692723 378.86676 
L 463.08993 380.737277 
L 474.542865 382.539676 
L 486.049913 384.082932 
L 495.008689 385.101807 
L 507.459054 386.256896 
L 519.408033 387.085159 
L 531.532456 387.650384 
L 543.943188 387.94742 
L 550.938462 387.99144 
L 550.938462 387.99144 
" style="fill:none;stroke:#ff8a00;stroke-linecap:square;"/>
   </g>
   <g id="patch_3">
    <path d="M 550.938462 395.457939 
L 550.938462 7.2 
" style="fill:none;stroke:#000000;stroke-linecap:square;stroke-linejoin:miter;stroke-width:0.8;"/>
   </g>
   <g id="patch_4">
    <path d="M 7.2 387.99144 
L 561.6 387.99144 
" style="fill:none;stroke:#000000;stroke-linecap:square;stroke-linejoin:miter;stroke-width:0.8;"/>
   </g>
  </g>
 </g>
 <defs>
  <clipPath id="pd40cc73c0d">
   <rect height="388.257939" width="554.4" x="7.2" y="7.2"/>
  </clipPath>
 </defs>
</svg>
